<svg width="468" height="466" viewBox="0 0 468 466" fill="none" xmlns="http://www.w3.org/2000/svg">
<path d="M467 233C467 230.449 466.959 227.908 466.877 225.377L465.877 225.409C465.712 220.33 465.383 215.292 464.894 210.301L465.889 210.203C465.392 205.123 464.73 200.091 463.908 195.112L462.921 195.275C462.095 190.265 461.107 185.31 459.962 180.414L460.936 180.186C459.776 175.227 458.457 170.329 456.983 165.497L456.027 165.789C454.548 160.94 452.914 156.159 451.129 151.451L452.065 151.097C450.261 146.339 448.305 141.655 446.203 137.053L445.293 137.468C443.19 132.864 440.94 128.341 438.548 123.905L439.429 123.431C437.017 118.957 434.463 114.572 431.771 110.281L430.924 110.812C428.237 106.528 425.413 102.337 422.458 98.2473L423.268 97.6617C420.295 93.5471 417.19 89.5333 413.96 85.6267L413.189 86.264C409.969 82.3701 406.624 78.583 403.159 74.9088L403.886 74.2227C400.406 70.5325 396.806 66.9557 393.093 63.4986L392.411 64.2305C388.716 60.7903 384.907 57.469 380.992 54.2728L381.624 53.4981C377.698 50.2933 373.665 47.2137 369.532 44.2655L368.951 45.0796C364.844 42.1503 360.637 39.3512 356.336 36.6883L356.862 35.8381C352.557 33.1724 348.157 30.6426 343.67 28.2548L343.2 29.1376C338.752 26.7705 334.218 24.5436 329.603 22.4626L330.014 21.551C325.402 19.4714 320.709 17.537 315.943 15.7537L315.592 16.6903C310.878 14.9265 306.091 13.3111 301.236 11.8499L301.524 10.8923C296.688 9.43664 291.786 8.13326 286.823 6.98778L286.598 7.96216C281.699 6.83156 276.741 5.85545 271.729 5.03926L271.89 4.05226C266.91 3.24134 261.877 2.58762 256.797 2.09637L256.701 3.09173C251.709 2.60906 246.671 2.28391 241.591 2.12132L241.623 1.12184C239.092 1.04082 236.551 1 234 1C231.449 1 228.908 1.04082 226.377 1.12183L226.409 2.12132C221.329 2.2839 216.291 2.60906 211.3 3.09172L211.203 2.09636C206.123 2.58761 201.09 3.24133 196.11 4.05225L196.271 5.03925C191.259 5.85543 186.301 6.83154 181.402 7.96214L181.177 6.98776C176.214 8.13324 171.312 9.43662 166.476 10.8923L166.764 11.8499C161.909 13.3111 157.122 14.9265 152.408 16.6903L152.057 15.7537C147.291 17.537 142.599 19.4714 137.986 21.551L138.397 22.4626C133.782 24.5435 129.248 26.7705 124.8 29.1375L124.33 28.2548C119.843 30.6426 115.444 33.1723 111.138 35.838L111.664 36.6883C107.363 39.3512 103.156 42.1503 99.049 45.0796L98.4683 44.2654C94.3345 47.2137 90.3017 50.2933 86.3758 53.4981L87.0082 54.2727C83.0928 57.469 79.2843 60.7902 75.5889 64.2304L74.9075 63.4985C71.1939 66.9557 67.5939 70.5325 64.1138 74.2227L64.8414 74.9088C61.3764 78.5829 58.0309 82.37 54.8108 86.2639L54.0402 85.6266C50.8096 89.5333 47.7048 93.547 44.7319 97.6616L45.5425 98.2473C42.5873 102.337 39.7632 106.528 37.0762 110.812L36.229 110.28C33.5375 114.572 30.9829 118.957 28.5713 123.431L29.4516 123.905C27.06 128.341 24.8098 132.864 22.7068 137.468L21.7972 137.053C19.6947 141.655 17.7388 146.339 15.9355 151.097L16.8705 151.451C15.0861 156.159 13.4517 160.94 11.9731 165.789L11.0166 165.497C9.54325 170.329 8.22394 175.227 7.06436 180.186L8.0381 180.414C6.89339 185.31 5.90502 190.265 5.07853 195.275L4.09186 195.112C3.27047 200.091 2.60828 205.123 2.11065 210.203L3.10589 210.301C2.61698 215.292 2.2876 220.33 2.1229 225.409L1.12343 225.377C1.04135 227.908 1 230.449 1 233C1 235.551 1.04135 238.092 1.12342 240.623L2.1229 240.591C2.2876 245.67 2.61697 250.708 3.10588 255.699L2.11065 255.797C2.60827 260.877 3.27046 265.909 4.09185 270.888L5.07851 270.725C5.905 275.735 6.89337 280.69 8.03808 285.586L7.06434 285.814C8.22391 290.773 9.54322 295.671 11.0166 300.503L11.9731 300.211C13.4517 305.06 15.0861 309.841 16.8705 314.549L15.9354 314.903C17.7388 319.661 19.6947 324.345 21.7972 328.947L22.7068 328.532C24.8097 333.136 27.06 337.659 29.4515 342.095L28.5713 342.569C30.9828 347.043 33.5374 351.428 36.229 355.719L37.0761 355.188C39.7632 359.472 42.5873 363.663 45.5424 367.753L44.7319 368.338C47.7047 372.453 50.8095 376.467 54.0401 380.373L54.8108 379.736C58.0308 383.63 61.3764 387.417 64.8413 391.091L64.1138 391.777C67.5939 395.467 71.1938 399.044 74.9075 402.501L75.5889 401.77C79.2843 405.21 83.0927 408.531 87.0081 411.727L86.3758 412.502C90.3016 415.707 94.3345 418.786 98.4683 421.735L99.0489 420.92C103.156 423.85 107.363 426.649 111.664 429.312L111.138 430.162C115.443 432.828 119.843 435.357 124.33 437.745L124.8 436.862C129.248 439.229 133.782 441.456 138.397 443.537L137.986 444.449C142.598 446.529 147.291 448.463 152.057 450.246L152.408 449.31C157.122 451.073 161.909 452.689 166.764 454.15L166.476 455.108C171.312 456.563 176.214 457.867 181.177 459.012L181.402 458.038C186.301 459.168 191.259 460.145 196.271 460.961L196.11 461.948C201.09 462.759 206.123 463.412 211.203 463.904L211.299 462.908C216.291 463.391 221.329 463.716 226.409 463.879L226.377 464.878C228.908 464.959 231.449 465 234 465C236.551 465 239.092 464.959 241.623 464.878L241.591 463.879C246.671 463.716 251.709 463.391 256.7 462.908L256.797 463.904C261.877 463.412 266.91 462.759 271.89 461.948L271.729 460.961C276.741 460.145 281.699 459.168 286.598 458.038L286.823 459.012C291.786 457.867 296.688 456.563 301.524 455.108L301.236 454.15C306.091 452.689 310.878 451.074 315.592 449.31L315.943 450.246C320.709 448.463 325.401 446.529 330.014 444.449L329.603 443.537C334.218 441.456 338.752 439.23 343.2 436.862L343.67 437.745C348.157 435.357 352.556 432.828 356.862 430.162L356.336 429.312C360.637 426.649 364.844 423.85 368.951 420.92L369.532 421.735C373.665 418.786 377.698 415.707 381.624 412.502L380.992 411.727C384.907 408.531 388.716 405.21 392.411 401.77L393.092 402.501C396.806 399.044 400.406 395.468 403.886 391.777L403.159 391.091C406.624 387.417 409.969 383.63 413.189 379.736L413.96 380.373C417.19 376.467 420.295 372.453 423.268 368.338L422.458 367.753C425.413 363.663 428.237 359.472 430.924 355.188L431.771 355.72C434.463 351.428 437.017 347.043 439.429 342.569L438.548 342.095C440.94 337.659 443.19 333.136 445.293 328.532L446.203 328.947C448.305 324.345 450.261 319.661 452.065 314.903L451.129 314.549C452.914 309.841 454.548 305.06 456.027 300.211L456.983 300.503C458.457 295.671 459.776 290.773 460.936 285.814L459.962 285.586C461.107 280.69 462.095 275.735 462.921 270.725L463.908 270.888C464.73 265.909 465.392 260.877 465.889 255.797L464.894 255.699C465.383 250.708 465.712 245.67 465.877 240.591L466.877 240.623C466.959 238.092 467 235.551 467 233Z" stroke="#EDF2F4" stroke-width="2" stroke-dasharray="15 15"/>
</svg>
