<svg width="1187" height="938" viewBox="0 0 1187 938" fill="none" xmlns="http://www.w3.org/2000/svg">
<path opacity="0.4" d="M921.891 782.874L922.724 783.117L923.35 782.515C925.756 780.2 928.074 777.818 930.306 775.373C930.864 774.761 930.821 773.812 930.209 773.253C930.207 773.252 930.206 773.25 930.204 773.248C933.918 769.098 937.388 764.765 940.621 760.262C940.623 760.264 940.625 760.265 940.627 760.266C941.304 760.743 942.24 760.581 942.717 759.903C946.515 754.507 949.981 748.875 953.13 743.029C953.523 742.3 953.25 741.39 952.521 740.997C952.519 740.996 952.517 740.995 952.515 740.994C955.09 736.112 957.446 731.081 959.59 725.911C959.592 725.912 959.593 725.913 959.595 725.914C960.363 726.225 961.238 725.855 961.549 725.087C964.006 719.029 966.178 712.789 968.077 706.387C968.313 705.592 967.86 704.758 967.066 704.522C967.064 704.521 967.062 704.521 967.061 704.52C968.588 699.238 969.931 693.843 971.098 688.347C971.099 688.348 971.101 688.348 971.102 688.348C971.914 688.515 972.707 687.993 972.874 687.182C974.187 680.802 975.265 674.291 976.119 667.665C976.225 666.843 975.644 666.091 974.823 665.985C974.821 665.985 974.82 665.985 974.819 665.985C975.493 660.525 976.015 654.987 976.393 649.378C976.394 649.379 976.395 649.379 976.396 649.379C977.223 649.43 977.935 648.802 977.987 647.975C978.393 641.473 978.607 634.88 978.637 628.211C978.641 627.382 977.972 626.708 977.144 626.704C977.143 626.704 977.142 626.704 977.141 626.704C977.143 621.189 977.02 615.622 976.777 610.009C976.778 610.009 976.779 610.009 976.78 610.009C977.607 609.97 978.247 609.268 978.208 608.44C977.901 601.919 977.435 595.339 976.817 588.713C976.74 587.888 976.009 587.282 975.184 587.359C975.183 587.359 975.182 587.359 975.182 587.359C974.651 581.873 974.017 576.355 973.284 570.812C973.285 570.812 973.286 570.812 973.286 570.811C974.107 570.7 974.683 569.945 974.572 569.124C973.696 562.657 972.687 556.158 971.552 549.638C971.41 548.822 970.633 548.276 969.817 548.418C969.816 548.418 969.816 548.418 969.815 548.418C968.851 542.971 967.799 537.51 966.664 532.04C966.664 532.04 966.665 532.04 966.666 532.039C967.476 531.869 967.995 531.074 967.825 530.263C966.477 523.854 965.016 517.435 963.447 511.016C963.251 510.211 962.439 509.718 961.634 509.915C961.634 509.915 961.633 509.915 961.633 509.915C960.303 504.529 958.898 499.142 957.422 493.762C957.422 493.762 957.423 493.761 957.423 493.761C958.222 493.54 958.69 492.714 958.469 491.915C956.719 485.593 954.871 479.279 952.932 472.985C952.688 472.193 951.849 471.749 951.057 471.993C951.057 471.993 951.056 471.993 951.056 471.993C949.409 466.688 947.698 461.396 945.926 456.124C945.927 456.124 945.927 456.124 945.928 456.123C946.712 455.858 947.133 455.006 946.868 454.222C944.759 447.99 942.566 441.786 940.296 435.621C940.01 434.844 939.147 434.445 938.37 434.732C938.37 434.732 938.369 434.732 938.369 434.732C936.433 429.508 934.442 424.312 932.399 419.15C932.4 419.15 932.4 419.15 932.401 419.15C933.171 418.844 933.546 417.971 933.24 417.202C930.802 411.077 928.293 405 925.718 398.983C925.392 398.221 924.51 397.868 923.749 398.194C923.748 398.194 923.748 398.194 923.747 398.194C921.542 393.07 919.29 387.988 916.995 382.956C916.996 382.955 916.996 382.955 916.996 382.955C917.75 382.61 918.08 381.719 917.735 380.966C914.974 374.945 912.152 368.994 909.276 363.126C908.911 362.382 908.013 362.075 907.269 362.439C907.268 362.44 907.268 362.44 907.267 362.44C904.79 357.41 902.272 352.442 899.719 347.541C899.72 347.541 899.72 347.541 899.721 347.541C900.455 347.156 900.738 346.25 900.354 345.516C897.272 339.628 894.139 333.839 890.963 328.161C890.559 327.438 889.645 327.18 888.922 327.584C888.921 327.584 888.921 327.585 888.921 327.585C886.167 322.686 883.382 317.871 880.57 313.147C880.571 313.147 880.571 313.146 880.572 313.146C881.283 312.721 881.514 311.8 881.089 311.089C877.663 305.363 874.198 299.772 870.704 294.331C870.256 293.634 869.328 293.432 868.631 293.879C868.631 293.879 868.63 293.88 868.63 293.88C865.569 289.139 862.486 284.515 859.387 280.015C859.388 280.014 859.389 280.014 859.389 280.014C860.07 279.542 860.24 278.607 859.768 277.926C855.938 272.398 852.085 267.06 848.22 261.93C847.722 261.268 846.781 261.136 846.12 261.634C846.119 261.635 846.118 261.635 846.118 261.636C842.676 257.098 839.226 252.728 835.776 248.537C835.777 248.536 835.777 248.535 835.778 248.535C836.416 248.006 836.504 247.06 835.975 246.423C831.616 241.169 827.256 236.2 822.913 231.54C822.348 230.935 821.399 230.901 820.793 231.466C820.792 231.467 820.791 231.468 820.79 231.469C816.826 227.259 812.878 223.312 808.959 219.647C808.96 219.646 808.961 219.644 808.962 219.643C809.524 219.034 809.486 218.085 808.877 217.524C803.756 212.797 798.68 208.547 793.675 204.817C793.01 204.322 792.071 204.459 791.576 205.123C791.574 205.125 791.573 205.127 791.571 205.129C786.813 201.655 782.13 198.668 777.548 196.202C777.55 196.199 777.552 196.195 777.553 196.192C777.934 195.456 777.647 194.551 776.911 194.17C773.896 192.608 770.916 191.268 767.98 190.163C764.961 188.338 761.982 186.665 759.042 185.141C758.307 184.759 757.402 185.046 757.02 185.782C757.019 185.784 757.018 185.787 757.017 185.789C751.785 183.146 746.686 180.981 741.708 179.264C741.709 179.261 741.71 179.257 741.712 179.254C741.971 178.467 741.543 177.619 740.756 177.36C734.062 175.154 727.572 173.743 721.264 173.058C720.44 172.968 719.7 173.563 719.611 174.387C719.61 174.391 719.61 174.396 719.609 174.4C713.905 173.883 708.361 173.972 702.959 174.606C702.959 174.602 702.958 174.597 702.957 174.592C702.845 173.772 702.089 173.197 701.268 173.309C694.609 174.22 688.167 175.944 681.91 178.369C681.138 178.669 680.755 179.538 681.054 180.31C681.055 180.314 681.057 180.318 681.058 180.322C675.968 182.39 670.994 184.931 666.117 187.884C666.115 187.882 666.114 187.879 666.112 187.877C665.674 187.173 664.749 186.958 664.046 187.396C658.534 190.826 653.154 194.768 647.876 199.13C647.237 199.658 647.147 200.603 647.675 201.242C647.676 201.243 647.678 201.245 647.679 201.247C643.497 204.762 639.372 208.546 635.291 212.555C635.29 212.554 635.289 212.553 635.288 212.552C634.704 211.964 633.754 211.961 633.167 212.545C628.579 217.104 624.049 221.937 619.557 226.982C619.006 227.601 619.061 228.549 619.679 229.1C619.68 229.101 619.681 229.101 619.681 229.102C616.042 233.219 612.424 237.475 608.815 241.839C608.815 241.839 608.814 241.838 608.814 241.838C608.174 241.312 607.229 241.403 606.703 242.043C602.566 247.068 598.443 252.228 594.319 257.471C593.806 258.122 593.919 259.065 594.57 259.577C594.57 259.578 594.571 259.578 594.571 259.578C591.146 263.941 587.717 268.361 584.275 272.811C583.619 272.304 582.677 272.424 582.17 273.08C581.499 273.948 580.827 274.817 580.154 275.687C576.805 280.019 573.443 284.367 570.057 288.709C569.548 289.363 569.665 290.305 570.318 290.814C566.876 295.221 563.409 299.619 559.908 303.981C559.263 303.462 558.319 303.564 557.8 304.209C553.659 309.351 549.472 314.435 545.224 319.419C544.687 320.049 544.762 320.995 545.391 321.532C541.734 325.799 538.03 329.99 534.27 334.077C533.662 333.516 532.715 333.553 532.152 334.16C527.652 339.015 523.073 343.716 518.4 348.214C517.803 348.787 517.784 349.735 518.356 350.332C514.276 354.219 510.121 357.952 505.882 361.501C505.354 360.865 504.411 360.777 503.773 361.303C498.671 365.518 493.45 369.457 488.091 373.066C487.406 373.527 487.223 374.456 487.682 375.143C482.983 378.25 478.176 381.108 473.25 383.679C472.872 382.946 471.972 382.655 471.236 383.03C465.411 385.996 459.421 388.554 453.247 390.647C452.466 390.912 452.045 391.758 452.306 392.541C447.036 394.259 441.631 395.642 436.078 396.655C435.935 395.843 435.164 395.298 434.35 395.437C428.086 396.5 421.631 397.088 414.968 397.146C414.143 397.153 413.479 397.826 413.481 398.65C408.08 398.634 402.545 398.275 396.868 397.546C396.978 396.729 396.406 395.976 395.588 395.862C389.42 395.004 383.076 393.706 376.547 391.931C375.75 391.714 374.928 392.183 374.708 392.979C369.512 391.517 364.203 389.758 358.776 387.685C359.073 386.914 358.692 386.048 357.922 385.747C352.019 383.442 345.971 380.762 339.77 377.685C339.029 377.317 338.131 377.618 337.762 378.357C333.061 375.989 328.276 373.396 323.403 370.568C323.82 369.854 323.581 368.937 322.867 368.518C317.371 365.291 311.761 361.763 306.032 357.921C305.345 357.46 304.415 357.643 303.953 358.329C299.524 355.332 295.026 352.15 290.457 348.775C290.95 348.111 290.812 347.173 290.148 346.679C285.026 342.868 279.814 338.816 274.509 334.512C273.866 333.99 272.922 334.088 272.4 334.73C268.234 331.331 264.012 327.778 259.733 324.068C260.275 323.443 260.21 322.497 259.586 321.953C254.696 317.692 249.73 313.225 244.686 308.546C244.079 307.983 243.131 308.018 242.567 308.624C238.681 305.003 234.749 301.257 230.77 297.383C231.348 296.79 231.337 295.841 230.745 295.263C226.032 290.656 221.254 285.87 216.408 280.9C215.83 280.307 214.881 280.295 214.288 280.872C210.585 277.061 206.843 273.144 203.062 269.117C203.666 268.551 203.697 267.602 203.131 266.997C198.745 262.312 194.305 257.48 189.81 252.497C189.256 251.882 188.308 251.833 187.693 252.388C183.883 248.152 180.034 243.81 176.146 239.359C176.77 238.814 176.835 237.867 176.29 237.243C172.205 232.554 168.075 227.744 163.901 222.811C163.366 222.179 162.42 222.1 161.788 222.635C158.238 218.43 154.656 214.136 151.041 209.753C151.681 209.227 151.772 208.282 151.246 207.642C146.983 202.462 142.674 197.156 138.32 191.722C137.802 191.076 136.858 190.972 136.212 191.49C132.923 187.378 129.607 183.194 126.266 178.936C126.917 178.425 127.032 177.483 126.521 176.831C122.561 171.777 118.565 166.62 114.531 161.359C114.027 160.702 113.086 160.578 112.428 161.081C108.985 156.584 105.515 152.011 102.018 147.361C102.68 146.863 102.813 145.923 102.316 145.261C100.261 142.525 98.1966 139.762 96.1227 136.973L95.2958 135.861L94.1219 136.598C91.114 138.484 88.1886 140.399 85.3443 142.34C84.66 142.807 84.4839 143.74 84.951 144.424C84.9518 144.426 84.9526 144.427 84.9534 144.428C80.1043 147.779 75.4977 151.21 71.127 154.716C71.126 154.714 71.1249 154.713 71.1239 154.712C70.6012 154.069 69.6565 153.972 69.0137 154.494C63.5851 158.908 58.5216 163.443 53.811 168.091C53.2213 168.673 53.215 169.623 53.7969 170.212C53.7982 170.214 53.7996 170.215 53.8009 170.216C49.6034 174.422 45.6957 178.719 42.0682 183.102C42.0666 183.101 42.0649 183.1 42.0633 183.098C41.4206 182.576 40.4759 182.673 39.9531 183.315C35.5385 188.742 31.5441 194.302 27.9527 199.984C27.5102 200.685 27.7191 201.611 28.4194 202.054C28.4213 202.055 28.4232 202.056 28.4252 202.057C25.3426 207.035 22.5699 212.105 20.095 217.263C20.0929 217.262 20.0908 217.261 20.0887 217.26C19.3384 216.909 18.4454 217.232 18.0941 217.982C15.1706 224.225 12.6752 230.592 10.5873 237.074C10.3333 237.862 10.7666 238.708 11.5551 238.962C11.5573 238.962 11.5595 238.963 11.5617 238.964C9.84085 244.479 8.41485 250.078 7.27072 255.754C7.26858 255.754 7.26647 255.753 7.26433 255.753C6.45085 255.596 5.66442 256.129 5.50778 256.942C4.22284 263.615 3.32131 270.39 2.78215 277.257C2.71732 278.083 3.33425 278.805 4.16013 278.87C4.16207 278.87 4.16405 278.87 4.16598 278.87C3.76214 284.584 3.60892 290.363 3.6944 296.201C3.69265 296.201 3.69094 296.201 3.6892 296.201C2.86095 296.219 2.20401 296.905 2.22191 297.733C2.36728 304.47 2.82582 311.282 3.57898 318.161C3.66915 318.984 4.40984 319.579 5.23333 319.489C5.23483 319.488 5.23633 319.488 5.23782 319.488C5.89373 325.165 6.75024 330.888 7.79727 336.654C7.79598 336.654 7.79473 336.654 7.79344 336.654C6.97915 336.807 6.44242 337.59 6.59468 338.405C7.83105 345.016 9.31441 351.68 11.0293 358.389C11.2345 359.192 12.0514 359.676 12.8541 359.471C12.8551 359.47 12.8562 359.47 12.8573 359.47C14.3008 365.014 15.9026 370.59 17.6539 376.194C17.653 376.194 17.6521 376.194 17.6511 376.195C16.8614 376.445 16.424 377.288 16.6742 378.078C18.7056 384.49 20.9303 390.936 23.3354 397.41C23.624 398.187 24.4874 398.583 25.2639 398.294C25.2647 398.294 25.2655 398.294 25.2663 398.293C27.272 403.637 29.4007 409.002 31.6451 414.382C31.6445 414.382 31.6438 414.383 31.6431 414.383C30.8794 414.704 30.5208 415.584 30.842 416.347C33.4489 422.545 36.2075 428.763 39.107 434.997C39.4564 435.748 40.3485 436.074 41.0997 435.724C41.1003 435.724 41.1009 435.724 41.1014 435.723C43.5373 440.925 46.0711 446.138 48.6965 451.358C48.696 451.359 48.6955 451.359 48.695 451.359C47.9557 451.733 47.6595 452.635 48.0334 453.375C51.0838 459.406 54.255 465.447 57.5373 471.492C57.9326 472.22 58.8432 472.49 59.5713 472.095C59.5717 472.094 59.5722 472.094 59.5726 472.094C62.3187 477.128 65.1417 482.165 68.036 487.203C68.0355 487.204 68.0352 487.204 68.0348 487.204C67.3172 487.618 67.071 488.535 67.485 489.253C70.8572 495.099 74.3242 500.945 77.8771 506.787C78.3076 507.495 79.2303 507.72 79.9381 507.289C79.9385 507.289 79.9388 507.289 79.9392 507.289C82.9435 512.211 86.0087 517.131 89.1295 522.046C89.1292 522.046 89.1289 522.046 89.1286 522.046C88.4299 522.491 88.2244 523.419 88.6694 524.117C92.3075 529.828 96.0198 535.531 99.7979 541.223C100.256 541.913 101.187 542.101 101.877 541.643C101.877 541.643 101.878 541.643 101.878 541.643C105.071 546.439 108.311 551.228 111.592 556.006C111.592 556.006 111.591 556.006 111.591 556.007C110.909 556.476 110.736 557.41 111.206 558.093C115.051 563.678 118.953 569.248 122.902 574.799C123.382 575.474 124.319 575.632 124.994 575.152C124.994 575.151 124.994 575.151 124.995 575.151C128.352 579.86 131.745 584.556 135.166 589.235C135.166 589.235 135.166 589.236 135.166 589.236C134.498 589.725 134.353 590.664 134.842 591.332C138.855 596.808 142.907 602.263 146.992 607.691C147.49 608.353 148.43 608.486 149.092 607.988C149.092 607.987 149.092 607.987 149.093 607.987C152.58 612.613 156.09 617.22 159.619 621.806C159.618 621.806 159.618 621.807 159.618 621.807C158.962 622.312 158.84 623.254 159.346 623.911C163.498 629.298 167.674 634.656 171.868 639.981C172.38 640.632 173.323 640.744 173.974 640.232C173.974 640.231 173.974 640.231 173.975 640.231C177.567 644.786 181.171 649.316 184.782 653.819C184.782 653.819 184.781 653.819 184.781 653.819C184.135 654.338 184.032 655.282 184.551 655.928C188.825 661.251 193.108 666.536 197.392 671.778C197.916 672.42 198.861 672.515 199.503 671.991C199.503 671.991 199.503 671.991 199.503 671.99C203.183 676.489 206.863 680.957 210.539 685.39C209.902 685.919 209.814 686.865 210.343 687.503C214.697 692.75 219.044 697.949 223.375 703.097C223.908 703.731 224.854 703.812 225.488 703.279C229.254 707.751 233.007 712.184 236.742 716.575C236.111 717.112 236.035 718.059 236.572 718.69C241.022 723.917 245.445 729.085 249.831 734.188C250.371 734.816 251.319 734.887 251.947 734.347C255.754 738.773 259.533 743.15 263.278 747.475C262.652 748.018 262.584 748.965 263.127 749.591C267.617 754.774 272.056 759.881 276.434 764.907C276.978 765.531 277.926 765.597 278.55 765.053C282.42 769.493 286.241 773.871 290.006 778.181C289.382 778.726 289.318 779.674 289.863 780.298C291.67 782.367 293.464 784.42 295.244 786.456C297.961 789.566 300.645 792.638 303.294 795.671C303.838 796.295 304.786 796.359 305.41 795.815C309.3 800.27 313.112 804.642 316.837 808.924C316.211 809.467 316.145 810.415 316.689 811.04C318.908 813.593 321.095 816.113 323.248 818.601L323.278 818.635L323.31 818.668C325.808 821.223 328.264 823.72 330.676 826.16C331.259 826.749 332.208 826.754 332.797 826.172C332.798 826.172 332.798 826.172 332.798 826.171C336.864 830.276 340.808 834.215 344.634 837.992C344.634 837.993 344.633 837.993 344.633 837.993C344.052 838.583 344.059 839.533 344.649 840.114C349.659 845.05 354.467 849.708 359.083 854.099C359.684 854.67 360.633 854.646 361.204 854.046C361.204 854.046 361.205 854.046 361.205 854.045C365.35 857.977 369.339 861.69 373.178 865.191C373.178 865.192 373.178 865.192 373.177 865.192C372.62 865.806 372.666 866.754 373.279 867.311C378.596 872.14 383.627 876.563 388.393 880.599C389.025 881.135 389.972 881.056 390.507 880.424C390.507 880.424 390.508 880.423 390.509 880.422C395.164 884.34 399.561 887.88 403.717 891.063C403.716 891.064 403.715 891.065 403.714 891.066C403.214 891.726 403.344 892.667 404.004 893.167C409.91 897.641 415.339 901.394 420.35 904.479C421.056 904.913 421.98 904.694 422.414 903.988C422.415 903.986 422.417 903.984 422.418 903.981C427.922 907.291 432.889 909.757 437.404 911.462C437.401 911.468 437.399 911.474 437.397 911.48C437.124 912.262 437.536 913.118 438.318 913.391C446.163 916.136 452.794 916.622 458.58 915.125C459.382 914.917 459.864 914.099 459.657 913.297C459.652 913.281 459.648 913.266 459.644 913.251C464.779 911.565 469.096 908.178 472.997 903.485C473.002 903.49 473.008 903.494 473.014 903.499C473.666 904.009 474.609 903.894 475.12 903.242C478.84 898.487 482.177 892.606 485.473 885.994C485.842 885.253 485.541 884.352 484.799 883.983C484.798 883.982 484.796 883.981 484.795 883.981C487.048 879.389 489.31 874.428 491.691 869.207C491.774 869.025 491.857 868.842 491.94 868.66C492.693 869.004 493.583 868.672 493.927 867.918C496.548 862.175 499.317 856.159 502.38 849.993C502.748 849.252 502.447 848.353 501.707 847.984C504.169 843.082 506.821 838.091 509.735 833.079C510.448 833.497 511.365 833.26 511.785 832.547C515.027 827.053 518.589 821.547 522.561 816.117C523.049 815.45 522.906 814.515 522.241 814.025C525.516 809.626 529.066 805.28 532.94 801.033C533.547 801.592 534.493 801.556 535.055 800.951C539.383 796.294 544.112 791.766 549.307 787.43C549.942 786.901 550.028 785.959 549.503 785.323C553.72 781.873 558.238 778.548 563.089 775.381C563.537 776.074 564.461 776.276 565.157 775.831C570.459 772.44 576.159 769.238 582.301 766.266C583.045 765.906 583.357 765.013 583.001 764.268C587.886 761.955 593.044 759.787 598.493 757.784C598.775 758.56 599.632 758.963 600.41 758.683C606.331 756.557 612.599 754.624 619.24 752.91C620.041 752.704 620.523 751.888 620.319 751.088C625.627 749.754 631.168 748.56 636.953 747.516C637.098 748.33 637.873 748.874 638.688 748.732C644.897 747.648 651.389 746.737 658.181 746.016C659.003 745.928 659.6 745.192 659.514 744.369C664.864 743.826 670.395 743.4 676.116 743.097C676.158 743.923 676.861 744.559 677.687 744.519C684.15 744.203 690.855 744.044 697.814 744.053C698.641 744.054 699.313 743.385 699.316 742.558C704.659 742.583 710.15 742.707 715.791 742.934C715.757 743.76 716.398 744.459 717.225 744.495C723.686 744.774 730.347 745.187 737.213 745.743C738.038 745.809 738.761 745.195 738.829 744.37C744.21 744.82 749.716 745.355 755.349 745.98C755.257 746.803 755.848 747.545 756.671 747.638C763.154 748.373 769.806 749.225 776.634 750.202C777.453 750.319 778.213 749.75 778.331 748.931C783.647 749.702 789.067 750.547 794.595 751.469C794.458 752.286 795.009 753.059 795.825 753.197C802.371 754.301 809.068 755.512 815.918 756.835C816.731 756.991 817.518 756.46 817.675 755.647C822.897 756.664 828.208 757.745 833.609 758.892C833.436 759.701 833.952 760.498 834.762 760.671C841.13 762.033 847.624 763.486 854.246 765.033C855.053 765.222 855.859 764.721 856.048 763.915C861.483 765.193 867.004 766.533 872.613 767.938C872.411 768.741 872.898 769.556 873.701 769.758C879.859 771.309 886.123 772.937 892.493 774.645C893.293 774.86 894.116 774.385 894.33 773.585C899.774 775.051 905.295 776.574 910.895 778.157C910.669 778.954 911.131 779.783 911.928 780.009C915.222 780.944 918.542 781.899 921.891 782.874Z" stroke="#EDF2F4" stroke-width="3" stroke-linecap="round" stroke-dasharray="20 20"/>
<path d="M1177.35 590.491L1178.45 590.5L1178.79 589.454C1179.93 585.949 1180.91 582.503 1181.74 579.117C1181.93 578.312 1181.44 577.5 1180.64 577.303C1180.63 577.303 1180.63 577.302 1180.63 577.301C1181.99 571.437 1182.88 565.759 1183.33 560.257C1183.34 560.258 1183.34 560.258 1183.34 560.258C1184.17 560.314 1184.89 559.689 1184.94 558.862C1185.42 551.71 1185.16 544.845 1184.2 538.251C1184.08 537.431 1183.32 536.863 1182.5 536.982C1182.5 536.982 1182.49 536.983 1182.49 536.984C1181.54 531.168 1180.05 525.572 1178.04 520.182C1178.05 520.181 1178.05 520.179 1178.05 520.178C1178.83 519.876 1179.21 519.005 1178.9 518.234C1176.4 511.828 1173.18 505.717 1169.31 499.876C1168.86 499.185 1167.92 498.995 1167.23 499.452C1167.23 499.454 1167.23 499.456 1167.23 499.458C1164.01 494.743 1160.36 490.203 1156.32 485.824C1156.33 485.822 1156.33 485.82 1156.33 485.818C1156.93 485.249 1156.96 484.3 1156.39 483.698C1151.79 478.824 1146.71 474.155 1141.21 469.672C1140.57 469.149 1139.62 469.246 1139.1 469.888C1139.1 469.89 1139.1 469.891 1139.09 469.893C1134.7 466.37 1130.03 462.96 1125.11 459.653C1125.11 459.651 1125.11 459.65 1125.11 459.649C1125.57 458.959 1125.38 458.028 1124.69 457.57C1119.15 453.892 1113.31 450.344 1107.2 446.912C1106.48 446.506 1105.56 446.762 1105.16 447.484C1105.16 447.485 1105.16 447.486 1105.15 447.487C1100.17 444.715 1095 442.017 1089.68 439.387C1089.68 439.386 1089.68 439.385 1089.68 439.384C1090.05 438.64 1089.74 437.742 1088.99 437.378C1082.94 434.412 1076.68 431.534 1070.26 428.733C1069.5 428.402 1068.61 428.749 1068.28 429.508C1068.28 429.509 1068.28 429.51 1068.28 429.51C1063.04 427.242 1057.68 425.023 1052.23 422.849C1052.23 422.849 1052.23 422.848 1052.23 422.848C1052.53 422.077 1052.16 421.206 1051.38 420.901C1045.13 418.424 1038.75 416.005 1032.26 413.636C1031.48 413.351 1030.62 413.752 1030.33 414.53C1030.33 414.53 1030.33 414.531 1030.33 414.531C1024.89 412.555 1019.38 410.612 1013.8 408.7C1013.8 408.699 1013.8 408.699 1013.8 408.699C1014.07 407.915 1013.65 407.062 1012.87 406.794C1006.47 404.61 999.999 402.464 993.467 400.349C992.679 400.094 991.833 400.526 991.578 401.314C991.578 401.315 991.578 401.315 991.577 401.315C986.07 399.538 980.521 397.783 974.942 396.045C974.942 396.045 974.942 396.045 974.942 396.045C975.188 395.254 974.746 394.413 973.954 394.167C967.452 392.147 960.911 390.151 954.35 388.171C953.556 387.932 952.72 388.381 952.48 389.174C946.922 387.5 941.349 385.838 935.773 384.183C936.009 383.388 935.556 382.554 934.761 382.318C928.213 380.377 921.662 378.445 915.125 376.517C914.33 376.283 913.496 376.737 913.262 377.532C907.679 375.885 902.107 374.241 896.557 372.595C896.793 371.8 896.34 370.965 895.546 370.73C888.961 368.775 882.408 366.817 875.907 364.849C875.114 364.609 874.277 365.057 874.037 365.85C868.434 364.151 862.87 362.444 857.355 360.725C857.602 359.934 857.161 359.093 856.371 358.846C849.822 356.799 843.346 354.734 836.964 352.645C836.177 352.387 835.33 352.816 835.072 353.603C829.449 351.755 823.9 349.887 818.437 347.995C818.708 347.213 818.295 346.358 817.513 346.086C810.981 343.811 804.576 341.501 798.323 339.146C797.548 338.854 796.683 339.245 796.391 340.019C790.908 337.941 785.542 335.828 780.309 333.673C780.625 332.908 780.262 332.031 779.497 331.714C773.015 329.024 766.744 326.27 760.714 323.441C759.965 323.089 759.073 323.411 758.721 324.159C753.303 321.592 748.081 318.961 743.077 316.26C743.472 315.534 743.204 314.624 742.479 314.228C736.308 310.855 730.486 307.374 725.055 303.769C724.366 303.312 723.438 303.498 722.979 304.185C717.989 300.819 713.332 297.343 709.04 293.743C709.574 293.114 709.499 292.172 708.872 291.634C703.532 287.058 698.802 282.292 694.744 277.312C694.224 276.673 693.285 276.574 692.643 277.089C688.954 272.411 685.837 267.538 683.348 262.448C684.09 262.095 684.41 261.21 684.064 260.463C681.273 254.442 679.376 248.121 678.462 241.46C678.351 240.644 677.603 240.073 676.789 240.175C676.154 234.645 676.178 228.887 676.908 222.882C677.724 222.989 678.474 222.419 678.589 221.603C679.452 215.443 681.071 209.004 683.507 202.263C683.787 201.486 683.388 200.63 682.615 200.345C684.532 195.243 686.905 189.98 689.757 184.549C690.486 184.936 691.391 184.662 691.782 183.934C694.817 178.279 698.376 172.433 702.489 166.387C702.954 165.703 702.778 164.772 702.096 164.305C705.204 159.797 708.613 155.183 712.334 150.458C712.982 150.971 713.924 150.863 714.439 150.215C718.426 145.202 722.767 140.061 727.474 134.789C728.025 134.172 727.972 133.225 727.356 132.673C731.161 128.441 735.198 124.128 739.474 119.73C740.067 120.307 741.015 120.296 741.594 119.705C746.086 115.112 750.838 110.426 755.859 105.644C756.459 105.073 756.482 104.124 755.912 103.524C760.041 99.6104 764.349 95.633 768.838 91.591C769.391 92.2067 770.338 92.2579 770.955 91.7051C773.595 89.3376 776.297 86.9476 779.063 84.535L780.505 83.2771L778.939 82.1772C776.148 80.2163 773.342 78.2914 770.524 76.4024C769.836 75.9411 768.904 76.1251 768.443 76.8133C768.442 76.8139 768.442 76.8146 768.441 76.8153C763.629 73.6127 758.78 70.515 753.895 67.5221C753.896 67.5214 753.896 67.5207 753.897 67.52C754.327 66.8122 754.102 65.8894 753.395 65.4589C747.577 61.9202 741.711 58.5294 735.801 55.2864C735.075 54.8879 734.163 55.1535 733.764 55.8798C733.764 55.8805 733.764 55.8813 733.763 55.882C728.688 53.119 723.582 50.4653 718.447 47.9209C718.448 47.9201 718.448 47.9194 718.449 47.9186C718.814 47.1751 718.507 46.2762 717.764 45.9109C711.646 42.9048 705.488 40.0531 699.297 37.3558C698.538 37.025 697.654 37.3724 697.323 38.1319C697.323 38.1327 697.322 38.1335 697.322 38.1343C692.013 35.8431 686.68 33.6658 681.326 31.6023C681.327 31.6015 681.327 31.6007 681.327 31.5999C681.623 30.8258 681.234 29.959 680.46 29.6638C674.097 27.2364 667.704 24.969 661.288 22.8619C660.501 22.6034 659.653 23.0319 659.395 23.8189C659.395 23.8198 659.394 23.8206 659.394 23.8214C653.899 22.038 648.387 20.3724 642.863 18.8247C642.863 18.8239 642.863 18.823 642.863 18.8222C643.084 18.0237 642.615 17.1975 641.817 16.9768C635.256 15.1639 628.677 13.5165 622.087 12.0347C621.278 11.853 620.476 12.3609 620.294 13.1691C620.294 13.17 620.294 13.1709 620.294 13.1717C614.656 11.9255 609.01 10.8009 603.36 9.79794C603.36 9.79704 603.36 9.79613 603.36 9.79523C603.502 8.97904 602.955 8.20242 602.139 8.06062C595.436 6.89597 588.727 5.902 582.019 5.07881C581.197 4.9779 580.449 5.56267 580.348 6.38493C580.347 6.38585 580.347 6.38678 580.347 6.38771C574.616 5.70604 568.887 5.14954 563.162 4.7183C563.163 4.71736 563.163 4.71642 563.163 4.71548C563.222 3.88916 562.6 3.17139 561.774 3.11228C554.989 2.62697 548.214 2.317 541.452 2.1825C540.624 2.16602 539.939 2.8241 539.923 3.65236C539.923 3.65332 539.923 3.65429 539.923 3.65525C534.153 3.56268 528.395 3.59846 522.653 3.76268C522.653 3.7617 522.653 3.76073 522.653 3.75975C522.626 2.93176 521.933 2.28236 521.105 2.30928C514.308 2.53023 507.533 2.93059 500.788 3.51053C499.962 3.58149 499.351 4.30812 499.422 5.1335C499.422 5.13449 499.422 5.13548 499.422 5.13647C493.678 5.65332 487.956 6.30105 482.26 7.07975C482.259 7.07875 482.259 7.07775 482.259 7.07675C482.144 6.25641 481.385 5.68505 480.565 5.80057C473.836 6.74808 467.144 7.87793 460.497 9.19026C459.684 9.3507 459.155 10.1396 459.316 10.9524C459.316 10.9534 459.316 10.9544 459.316 10.9554C453.668 12.0945 448.052 13.3661 442.473 14.7704C442.473 14.7694 442.473 14.7684 442.473 14.7673C442.267 13.9648 441.45 13.4809 440.647 13.6864C434.072 15.3707 427.547 17.239 421.082 19.2913C420.292 19.5419 419.856 20.3852 420.106 21.1748C420.107 21.1758 420.107 21.1768 420.107 21.1778C414.629 22.9423 409.193 24.84 403.805 26.8707C403.805 26.8697 403.804 26.8687 403.804 26.8677C403.508 26.0938 402.641 25.7059 401.868 26.0014C395.534 28.4195 389.266 31.0215 383.071 33.8074C382.316 34.1472 381.979 35.0352 382.318 35.7907C382.319 35.7917 382.319 35.7927 382.32 35.7936C377.087 38.1741 371.908 40.6869 366.786 43.332C366.785 43.331 366.785 43.33 366.784 43.3291C366.401 42.5947 365.495 42.31 364.76 42.6933C358.759 45.8258 352.836 49.14 347.001 52.636C346.29 53.0617 346.059 53.9829 346.485 54.6936C346.485 54.6945 346.486 54.6955 346.486 54.6964C341.574 57.6683 336.724 60.7701 331.941 64.0019C331.94 64.001 331.94 64.0001 331.939 63.9992C331.472 63.3148 330.539 63.1384 329.855 63.6051C324.27 67.4139 318.776 71.4 313.381 75.5635C312.725 76.0697 312.604 77.0116 313.11 77.6675C313.111 77.6683 313.112 77.6692 313.112 77.67C308.587 81.1932 304.133 84.8424 299.752 88.6177C299.752 88.6169 299.751 88.6161 299.75 88.6153C299.207 87.9901 298.259 87.9239 297.634 88.4674C292.539 92.8967 287.546 97.4968 282.659 102.268C282.067 102.846 282.055 103.796 282.634 104.389C282.635 104.39 282.636 104.39 282.636 104.391C278.553 108.412 274.547 112.553 270.62 116.815C270.619 116.814 270.618 116.814 270.618 116.813C270.006 116.254 269.057 116.297 268.498 116.909C263.959 121.877 259.527 127.007 255.21 132.299C254.686 132.941 254.782 133.886 255.423 134.41C255.424 134.41 255.425 134.411 255.426 134.411C251.833 138.851 248.321 143.404 244.892 148.071C244.891 148.07 244.89 148.07 244.889 148.069C244.22 147.581 243.281 147.729 242.794 148.398C238.836 153.829 234.991 159.411 231.263 165.144C230.812 165.839 231.009 166.768 231.703 167.22C231.704 167.22 231.705 167.221 231.706 167.221C228.612 172.019 225.601 176.924 222.675 181.934C222.675 181.933 222.674 181.933 222.673 181.932C221.956 181.517 221.038 181.762 220.623 182.479C217.257 188.294 214.004 194.25 210.87 200.346C210.492 201.083 210.782 201.987 211.519 202.366C211.52 202.367 211.52 202.367 211.521 202.367C208.925 207.464 206.412 212.659 203.984 217.953C203.983 217.952 203.982 217.952 203.982 217.951C203.227 217.609 202.338 217.942 201.995 218.697C199.224 224.796 196.566 231.024 194.025 237.382C193.718 238.151 194.092 239.024 194.861 239.331C194.862 239.332 194.863 239.332 194.864 239.332C192.771 244.621 190.759 249.999 188.83 255.466C188.83 255.466 188.829 255.465 188.828 255.465C188.046 255.192 187.191 255.605 186.918 256.387C185.797 259.598 184.704 262.839 183.641 266.111C182.539 269.503 181.547 272.872 180.661 276.218C180.449 277.019 180.927 277.84 181.728 278.052C181.73 278.053 181.732 278.053 181.734 278.054C180.268 283.784 179.118 289.446 178.269 295.043C178.267 295.042 178.265 295.042 178.262 295.042C177.442 294.925 176.683 295.495 176.566 296.315C175.579 303.243 175.049 310.073 174.948 316.812C174.936 317.64 175.597 318.322 176.426 318.334C176.428 318.334 176.43 318.334 176.433 318.334C176.401 324.222 176.699 330.037 177.308 335.785C177.306 335.785 177.303 335.785 177.301 335.786C176.478 335.881 175.888 336.625 175.983 337.448C176.776 344.309 178.007 351.072 179.644 357.743C179.841 358.547 180.654 359.04 181.458 358.842C181.46 358.842 181.463 358.841 181.465 358.841C182.894 364.451 184.613 369.997 186.601 375.483C186.599 375.484 186.597 375.485 186.595 375.485C185.818 375.774 185.423 376.637 185.711 377.414C188.08 383.791 190.808 390.084 193.864 396.299C194.229 397.042 195.128 397.349 195.872 396.983C195.873 396.982 195.875 396.982 195.876 396.981C198.452 402.129 201.254 407.226 204.265 412.275C204.264 412.276 204.263 412.277 204.262 412.278C203.553 412.706 203.325 413.628 203.754 414.337C207.259 420.137 211.037 425.871 215.058 431.544C215.538 432.22 216.474 432.38 217.15 431.901C217.151 431.9 217.152 431.899 217.153 431.898C220.514 436.592 224.044 441.246 227.727 445.863C227.726 445.863 227.725 445.864 227.724 445.864C227.079 446.384 226.977 447.328 227.496 447.973C231.718 453.222 236.135 458.423 240.724 463.578C241.275 464.197 242.223 464.252 242.842 463.701C242.843 463.7 242.843 463.7 242.844 463.699C246.684 467.984 250.643 472.24 254.709 476.469C254.708 476.469 254.708 476.47 254.707 476.47C254.112 477.046 254.096 477.995 254.672 478.591C259.382 483.463 264.231 488.298 269.198 493.099C269.794 493.675 270.743 493.659 271.319 493.063C271.32 493.063 271.32 493.063 271.32 493.062C275.496 497.081 279.755 501.078 284.086 505.055C284.086 505.055 284.086 505.055 284.086 505.055C283.526 505.667 283.569 506.616 284.18 507.175C289.172 511.742 294.257 516.283 299.416 520.8C300.039 521.346 300.987 521.283 301.533 520.659C301.533 520.659 301.533 520.659 301.533 520.659C305.896 524.468 310.311 528.261 314.769 532.04C314.769 532.04 314.769 532.04 314.769 532.04C314.234 532.673 314.313 533.619 314.945 534.154C320.143 538.551 325.396 542.928 330.687 547.289C331.326 547.816 332.271 547.725 332.798 547.086C332.798 547.086 332.799 547.086 332.799 547.085C337.282 550.775 341.793 554.454 346.32 558.124C345.799 558.768 345.898 559.713 346.542 560.234C351.841 564.524 357.161 568.802 362.486 573.071C363.132 573.589 364.076 573.485 364.594 572.839C368.619 576.063 372.646 579.283 376.669 582.499C377.191 582.917 377.712 583.334 378.234 583.751C377.717 584.398 377.822 585.342 378.469 585.859C383.802 590.123 389.122 594.381 394.416 598.636C395.062 599.155 396.006 599.052 396.525 598.406C401.083 602.072 405.621 605.737 410.127 609.402C409.604 610.044 409.7 610.989 410.343 611.512C415.661 615.843 420.934 620.174 426.143 624.508C426.779 625.038 427.725 624.951 428.255 624.315C432.744 628.058 437.185 631.803 441.568 635.554C441.029 636.182 441.102 637.129 441.73 637.668C446.948 642.145 452.079 646.628 457.106 651.122C457.723 651.674 458.671 651.622 459.223 651.005C463.609 654.94 467.915 658.884 472.127 662.84C471.56 663.442 471.588 664.391 472.19 664.959C477.208 669.691 482.088 674.438 486.81 679.204C487.393 679.792 488.342 679.797 488.93 679.216C493.057 683.405 497.062 687.61 500.931 691.834C500.319 692.391 500.275 693.339 500.832 693.951C505.465 699.046 509.895 704.166 514.097 709.317C514.62 709.958 515.563 710.055 516.205 709.534C519.935 714.149 523.483 718.79 526.83 723.462C526.157 723.942 525.999 724.876 526.477 725.551C530.478 731.2 534.179 736.89 537.549 742.627C537.968 743.34 538.884 743.58 539.598 743.164C542.556 748.28 545.252 753.436 547.665 758.638C546.915 758.982 546.583 759.868 546.924 760.621C549.754 766.859 552.168 773.157 554.129 779.523C554.372 780.313 555.207 780.756 555.996 780.518C557.657 786.113 558.971 791.763 559.911 797.475C559.097 797.604 558.539 798.367 558.664 799.183C559.676 805.795 560.18 812.488 560.137 819.271C560.131 820.096 560.794 820.77 561.618 820.78C561.514 826.486 561.026 832.256 560.13 838.095C559.315 837.965 558.548 838.517 558.414 839.332C557.35 845.778 555.782 852.313 553.675 858.942C553.425 859.73 553.858 860.57 554.643 860.824C552.878 866.195 550.763 871.626 548.282 877.119C547.531 876.775 546.643 877.104 546.297 877.854C543.553 883.795 540.374 889.813 536.739 895.914C536.315 896.624 536.547 897.542 537.255 897.968C534.393 902.696 531.261 907.47 527.847 912.292C527.174 911.813 526.239 911.968 525.757 912.64C523.749 915.443 521.645 918.263 519.442 921.101L518.133 922.787L520.164 923.447C523.523 924.539 526.855 925.554 530.16 926.494C530.957 926.72 531.786 926.258 532.013 925.461C532.014 925.46 532.014 925.459 532.014 925.457C537.681 927.036 543.267 928.391 548.774 929.533C548.774 929.535 548.773 929.536 548.773 929.538C548.61 930.35 549.136 931.141 549.948 931.304C556.775 932.676 563.485 933.722 570.084 934.458C570.908 934.55 571.65 933.957 571.741 933.134C571.742 933.132 571.742 933.13 571.742 933.129C577.616 933.743 583.401 934.111 589.101 934.242C589.101 934.244 589.101 934.246 589.101 934.248C589.088 935.076 589.749 935.758 590.577 935.771C597.529 935.882 604.358 935.645 611.073 935.081C611.898 935.011 612.511 934.286 612.442 933.46C612.442 933.458 612.441 933.457 612.441 933.455C618.253 932.923 623.978 932.145 629.622 931.135C629.623 931.137 629.623 931.138 629.623 931.14C629.775 931.955 630.559 932.492 631.373 932.34C638.124 931.08 644.759 929.492 651.289 927.599C652.085 927.368 652.543 926.536 652.312 925.74C652.312 925.739 652.311 925.737 652.311 925.735C657.851 924.087 663.316 922.219 668.713 920.145C668.714 920.146 668.714 920.148 668.715 920.149C669.017 920.92 669.887 921.301 670.659 920.999C676.989 918.519 683.224 915.76 689.373 912.747C690.117 912.382 690.425 911.484 690.06 910.74C690.06 910.738 690.059 910.737 690.059 910.736C695.206 908.177 700.296 905.439 705.334 902.536C705.335 902.537 705.335 902.538 705.336 902.539C705.753 903.255 706.672 903.497 707.387 903.08C713.228 899.676 718.998 896.053 724.707 892.235C725.396 891.774 725.581 890.843 725.12 890.154C725.12 890.153 725.119 890.152 725.118 890.152C729.877 886.94 734.595 883.593 739.278 880.121C739.278 880.122 739.279 880.123 739.279 880.123C739.775 880.787 740.715 880.923 741.379 880.428C746.787 876.389 752.148 872.189 757.47 867.847C758.111 867.324 758.207 866.379 757.684 865.737C757.683 865.736 757.683 865.736 757.682 865.735C762.126 862.089 766.544 858.345 770.941 854.513C770.941 854.513 770.942 854.514 770.942 854.514C771.488 855.138 772.435 855.2 773.059 854.655C778.137 850.209 783.187 845.65 788.217 840.996C788.825 840.434 788.862 839.485 788.299 838.876C788.299 838.876 788.299 838.876 788.298 838.875C792.506 834.969 796.7 830.996 800.886 826.968C800.886 826.968 800.887 826.968 800.887 826.968C801.462 827.564 802.412 827.581 803.008 827.006C807.864 822.32 812.708 817.562 817.548 812.748C818.135 812.164 818.138 811.214 817.553 810.627C817.553 810.627 817.553 810.626 817.553 810.626C821.633 806.561 825.711 802.456 829.791 798.322C830.381 798.904 831.33 798.897 831.912 798.307C836.66 793.491 841.41 788.636 846.17 783.761C846.749 783.168 846.738 782.218 846.145 781.639C848.317 779.414 850.491 777.184 852.668 774.951C854.533 773.038 856.399 771.124 858.268 769.208C858.861 769.787 859.811 769.775 860.389 769.182C865.117 764.338 869.86 759.489 874.626 754.648C875.207 754.057 875.2 753.108 874.609 752.527C878.664 748.412 882.737 744.304 886.83 740.213C887.415 740.799 888.365 740.8 888.951 740.215C893.748 735.427 898.574 730.665 903.436 725.941C904.029 725.364 904.043 724.415 903.467 723.82C907.622 719.792 911.803 715.793 916.016 711.832C916.582 712.435 917.531 712.466 918.135 711.899C923.081 707.262 928.069 702.679 933.105 698.166C933.722 697.613 933.774 696.665 933.222 696.048C937.541 692.192 941.896 688.388 946.291 684.644C946.827 685.274 947.773 685.352 948.405 684.816C953.579 680.428 958.808 676.126 964.1 671.926C964.748 671.411 964.857 670.469 964.343 669.82C968.891 666.229 973.485 662.713 978.131 659.281C978.621 659.947 979.559 660.09 980.226 659.6C985.687 655.591 991.217 651.7 996.824 647.943C997.511 647.482 997.696 646.552 997.236 645.864C1002.06 642.658 1006.93 639.551 1011.87 636.553C1012.3 637.261 1013.22 637.489 1013.93 637.062C1019.72 633.575 1025.59 630.239 1031.56 627.07C1032.29 626.682 1032.57 625.775 1032.18 625.044C1037.29 622.354 1042.48 619.787 1047.73 617.351C1048.08 618.102 1048.96 618.431 1049.72 618.087C1055.84 615.283 1062.05 612.66 1068.37 610.233C1069.14 609.937 1069.53 609.071 1069.23 608.298C1074.61 606.261 1080.07 604.366 1085.6 602.622C1085.85 603.411 1086.69 603.852 1087.48 603.607C1093.88 601.625 1100.38 599.847 1107 598.286C1107.81 598.097 1108.3 597.291 1108.12 596.486C1113.72 595.196 1119.4 594.06 1125.16 593.089C1125.29 593.905 1126.06 594.458 1126.88 594.324C1133.46 593.25 1140.15 592.391 1146.96 591.76C1147.78 591.683 1148.39 590.954 1148.31 590.131C1153.98 589.634 1159.72 589.295 1165.55 589.12C1165.58 589.946 1166.26 590.598 1167.09 590.578C1170.48 590.492 1173.9 590.463 1177.35 590.491Z" stroke="#EDF2F4" stroke-width="3" stroke-linecap="round" stroke-dasharray="20 20"/>
</svg>
