<svg width="657" height="518" viewBox="0 0 657 518" fill="none" xmlns="http://www.w3.org/2000/svg">
<path opacity="0.4" d="M509.497 432.486L510.053 432.648L510.47 432.246C512.355 430.431 514.144 428.543 515.838 426.584C516.199 426.166 516.153 425.535 515.735 425.174C515.734 425.172 515.732 425.171 515.731 425.17C518.614 421.756 521.213 418.133 523.542 414.321C523.544 414.322 523.545 414.323 523.547 414.324C524.021 414.607 524.635 414.452 524.918 413.977C527.548 409.566 529.826 404.913 531.774 400.051C531.979 399.538 531.73 398.956 531.218 398.751C531.216 398.75 531.215 398.75 531.213 398.749C532.816 394.638 534.184 390.376 535.332 385.983C535.333 385.983 535.335 385.983 535.336 385.984C535.871 386.119 536.415 385.795 536.55 385.259C537.792 380.346 538.762 375.277 539.479 370.076C539.555 369.529 539.172 369.025 538.625 368.949C538.624 368.949 538.623 368.949 538.622 368.949C539.193 364.591 539.588 360.14 539.816 355.611C539.817 355.611 539.818 355.611 539.819 355.611C540.371 355.636 540.838 355.208 540.863 354.657C541.09 349.579 541.112 344.408 540.941 339.165C540.923 338.613 540.461 338.18 539.909 338.198C539.908 338.198 539.907 338.198 539.906 338.198C539.742 333.792 539.443 329.335 539.017 324.838C539.018 324.838 539.019 324.838 539.019 324.838C539.569 324.783 539.971 324.294 539.916 323.744C539.416 318.681 538.758 313.571 537.952 308.431C537.867 307.885 537.355 307.512 536.81 307.598C536.809 307.598 536.809 307.598 536.808 307.598C536.107 303.224 535.3 298.829 534.394 294.423C534.395 294.423 534.395 294.423 534.396 294.423C534.937 294.31 535.283 293.78 535.17 293.239C534.125 288.232 532.953 283.213 531.666 278.198C531.529 277.663 530.984 277.341 530.449 277.478C530.448 277.478 530.448 277.478 530.447 277.478C529.329 273.17 528.125 268.864 526.843 264.572C526.843 264.572 526.843 264.572 526.844 264.572C527.373 264.412 527.672 263.854 527.513 263.326C526.029 258.406 524.443 253.505 522.766 248.638C522.586 248.116 522.017 247.838 521.495 248.018C521.494 248.018 521.494 248.018 521.494 248.018C520.027 243.796 518.491 239.6 516.893 235.44C516.894 235.44 516.894 235.439 516.895 235.439C517.41 235.24 517.666 234.661 517.467 234.146C515.602 229.326 513.655 224.556 511.636 219.852C511.418 219.344 510.83 219.109 510.323 219.327C510.323 219.327 510.322 219.327 510.322 219.328C508.539 215.199 506.7 211.122 504.813 207.107C504.813 207.107 504.814 207.106 504.814 207.106C505.313 206.87 505.527 206.274 505.291 205.775C503.067 201.072 500.777 196.455 498.433 191.941C498.179 191.45 497.575 191.259 497.085 191.514C497.085 191.514 497.084 191.514 497.084 191.515C494.99 187.506 492.854 183.581 490.683 179.751C490.683 179.75 490.684 179.75 490.684 179.75C491.164 179.476 491.331 178.866 491.057 178.386C488.464 173.837 485.822 169.424 483.145 165.166C482.851 164.699 482.234 164.558 481.766 164.852C481.766 164.852 481.766 164.852 481.765 164.853C479.316 160.982 476.839 157.244 474.345 153.654C474.346 153.653 474.346 153.653 474.347 153.653C474.799 153.336 474.909 152.712 474.593 152.26C471.537 147.893 468.455 143.746 465.367 139.849C465.024 139.417 464.395 139.344 463.962 139.687C463.961 139.687 463.961 139.688 463.96 139.688C461.064 136.066 458.164 132.667 455.276 129.516C455.277 129.516 455.278 129.515 455.279 129.514C455.684 129.139 455.708 128.506 455.332 128.101C451.6 124.076 447.886 120.459 444.223 117.305C443.804 116.945 443.173 116.992 442.812 117.41C442.811 117.411 442.81 117.412 442.809 117.414C439.12 114.295 435.492 111.662 431.963 109.566C431.964 109.564 431.966 109.561 431.967 109.559C432.241 109.079 432.074 108.468 431.595 108.194C429.235 106.846 426.91 105.733 424.632 104.874C422.331 103.484 420.073 102.254 417.854 101.177C417.358 100.936 416.759 101.143 416.518 101.64C416.517 101.642 416.516 101.644 416.515 101.646C412.335 99.6866 408.309 98.2848 404.417 97.386C404.418 97.3828 404.419 97.3796 404.42 97.3764C404.533 96.836 404.188 96.3057 403.647 96.1918C398.336 95.0733 393.262 94.8738 388.386 95.4634C387.838 95.5297 387.447 96.0279 387.514 96.5762C387.514 96.58 387.515 96.5838 387.515 96.5875C383.225 97.2058 379.095 98.448 375.094 100.216C375.093 100.213 375.092 100.21 375.09 100.207C374.858 99.7063 374.263 99.4885 373.763 99.721C369.308 101.787 365.022 104.484 360.863 107.669C360.424 108.005 360.341 108.632 360.677 109.071C360.678 109.072 360.679 109.074 360.68 109.075C357.366 111.672 354.121 114.587 350.924 117.75C350.924 117.749 350.923 117.749 350.922 117.748C350.531 117.358 349.898 117.359 349.508 117.75C346.072 121.196 342.692 124.918 339.343 128.828C338.984 129.247 339.033 129.878 339.452 130.238C339.453 130.238 339.453 130.238 339.454 130.239C336.695 133.483 333.952 136.856 331.208 140.309C331.208 140.309 331.208 140.309 331.208 140.309C330.775 139.966 330.146 140.039 329.803 140.472C326.777 144.294 323.75 148.21 320.705 152.149L320.56 152.336C320.223 152.772 320.303 153.401 320.74 153.738C318.097 157.156 315.436 160.592 312.742 164.005C312.309 163.662 311.681 163.736 311.338 164.168C308.228 168.097 305.077 171.986 301.863 175.773C301.506 176.193 301.557 176.824 301.977 177.181C299.136 180.507 296.244 183.752 293.286 186.872C292.887 186.492 292.255 186.506 291.874 186.905C288.385 190.55 284.808 194.013 281.119 197.223C280.703 197.585 280.659 198.214 281.019 198.631C277.688 201.487 274.262 204.14 270.726 206.538C270.42 206.081 269.802 205.957 269.343 206.262C265.172 209.029 260.852 211.432 256.355 213.388C255.85 213.608 255.618 214.193 255.834 214.698C251.861 216.365 247.747 217.689 243.474 218.615C243.362 218.078 242.837 217.731 242.298 217.84C237.589 218.788 232.684 219.247 227.556 219.139C227.006 219.128 226.551 219.562 226.536 220.111C222.409 219.967 218.142 219.463 213.722 218.561C213.835 218.023 213.493 217.494 212.955 217.378C208.409 216.394 203.694 214.985 198.796 213.105C198.282 212.908 197.705 213.164 197.506 213.677C193.666 212.164 189.719 210.368 185.659 208.269C185.914 207.78 185.726 207.178 185.238 206.921C181.045 204.717 176.728 202.187 172.279 199.308C171.816 199.009 171.198 199.14 170.897 199.602C167.489 197.373 164.007 194.941 160.446 192.299C160.776 191.857 160.685 191.232 160.244 190.901C156.454 188.065 152.575 184.988 148.602 181.66C148.179 181.306 147.549 181.361 147.194 181.783C143.923 179.025 140.59 176.097 137.193 172.995C137.566 172.588 137.539 171.956 137.132 171.583C133.673 168.407 130.146 165.048 126.551 161.501C126.158 161.113 125.525 161.117 125.138 161.51C122.108 158.507 119.03 155.372 115.903 152.101C116.302 151.72 116.317 151.087 115.936 150.687C112.642 147.228 109.293 143.617 105.887 139.849C105.516 139.44 104.885 139.408 104.475 139.778C101.601 136.589 98.6879 133.29 95.7335 129.877C96.1511 129.516 96.1972 128.885 95.8365 128.467C92.7143 124.85 89.5462 121.107 86.3312 117.233C85.9786 116.808 85.3484 116.75 84.9235 117.102C82.1246 113.721 79.2905 110.243 76.4205 106.664C76.8514 106.319 76.921 105.69 76.5761 105.259C73.6226 101.568 70.631 97.7714 67.6005 93.8664C67.2619 93.4302 66.634 93.3509 66.1977 93.6892C63.5597 90.2831 60.8925 86.7954 58.1955 83.2246C58.6362 82.8921 58.724 82.2653 58.3916 81.8244C56.8371 79.7625 55.2727 77.673 53.6983 75.5555L53.1471 74.8142L52.3645 75.3051C50.1474 76.6957 48.0113 78.1135 45.9544 79.5579C45.5024 79.8753 45.3933 80.499 45.7106 80.951C45.7113 80.9519 45.712 80.9529 45.7127 80.9539C42.0697 83.5513 38.6839 86.2324 35.5454 88.9923C35.5445 88.9912 35.5435 88.9902 35.5426 88.9891C35.1743 88.5775 34.5421 88.5423 34.1305 88.9106C30.2446 92.3871 26.7402 95.9885 23.5994 99.706C23.2429 100.128 23.296 100.759 23.7178 101.115C23.7191 101.116 23.7204 101.117 23.7217 101.118C20.9024 104.524 18.3895 108.025 16.1682 111.613C16.1666 111.613 16.165 111.612 16.1634 111.611C15.6907 111.325 15.076 111.477 14.7905 111.95C12.1332 116.35 9.90422 120.88 8.07737 125.526C7.87527 126.04 8.12811 126.62 8.64207 126.822C8.64383 126.823 8.64557 126.824 8.64732 126.825C7.10531 130.88 5.86982 135.023 4.92304 139.246C4.92132 139.246 4.9196 139.246 4.91786 139.245C4.37769 139.13 3.84651 139.475 3.73141 140.015C2.68758 144.914 2.02484 149.914 1.71533 155.003C1.6818 155.554 2.10151 156.028 2.65277 156.062C2.65431 156.062 2.65585 156.062 2.65738 156.062C2.43708 160.333 2.46538 164.669 2.72617 169.061C2.72486 169.061 2.72356 169.061 2.72226 169.061C2.17121 169.098 1.75455 169.575 1.7916 170.126C2.12244 175.046 2.73995 180.033 3.62123 185.074C3.71634 185.618 4.23445 185.982 4.77849 185.887C4.77955 185.887 4.78059 185.887 4.78164 185.887C5.54054 190.071 6.48117 194.295 7.59075 198.553C7.58989 198.554 7.58905 198.554 7.5882 198.554C7.05449 198.696 6.73704 199.244 6.87913 199.778C8.1471 204.54 9.62302 209.342 11.2889 214.175C11.4689 214.697 12.0381 214.975 12.5602 214.795C12.5609 214.795 12.5616 214.794 12.5623 214.794C13.9703 218.822 15.5103 222.873 17.1722 226.942C17.1716 226.942 17.1711 226.942 17.1705 226.943C16.66 227.153 16.4169 227.738 16.6276 228.248C18.5123 232.815 20.5481 237.402 22.7206 242.003C22.9564 242.502 23.5524 242.716 24.0518 242.48C24.0523 242.48 24.0527 242.48 24.0532 242.48C25.8933 246.346 27.83 250.223 29.8547 254.107C29.8543 254.107 29.8539 254.107 29.8535 254.107C29.3645 254.364 29.176 254.968 29.4326 255.457C31.7349 259.845 34.1478 264.24 36.6592 268.635C36.9331 269.114 37.544 269.281 38.0235 269.007C38.0239 269.007 38.0242 269.007 38.0245 269.006C40.1645 272.733 42.3751 276.46 44.6488 280.185C44.6486 280.185 44.6483 280.185 44.648 280.185C44.1772 280.474 44.0295 281.089 44.3182 281.56C46.9168 285.799 49.5959 290.033 52.3445 294.257C52.6457 294.72 53.2651 294.851 53.7281 294.55C53.7283 294.55 53.7286 294.55 53.7288 294.549C56.0864 298.16 58.4945 301.763 60.9463 305.356C60.9461 305.357 60.9459 305.357 60.9457 305.357C60.4899 305.669 60.3734 306.291 60.6853 306.747C63.503 310.863 66.3771 314.966 69.2971 319.049C69.6183 319.498 70.2429 319.602 70.6922 319.281C70.6923 319.281 70.6925 319.281 70.6927 319.28C73.2135 322.796 75.7681 326.298 78.35 329.782C78.3498 329.782 78.3497 329.782 78.3495 329.782C77.9061 330.111 77.8137 330.738 78.143 331.181C81.1273 335.199 84.1469 339.193 87.1917 343.159C87.528 343.597 88.1558 343.68 88.5938 343.343C88.594 343.343 88.5941 343.343 88.5943 343.343C91.2401 346.782 93.9045 350.2 96.5808 353.593C96.5807 353.593 96.5806 353.593 96.5804 353.593C96.1471 353.936 96.0734 354.565 96.4158 354.998C99.5293 358.938 102.658 362.845 105.791 366.712C106.139 367.141 106.769 367.207 107.198 366.859C107.198 366.859 107.198 366.859 107.198 366.859C109.941 370.24 112.688 373.59 115.43 376.907C115.43 376.907 115.43 376.907 115.43 376.908C115.004 377.26 114.945 377.89 115.297 378.316C118.513 382.2 121.722 386.038 124.914 389.824C125.27 390.246 125.901 390.3 126.323 389.944C126.323 389.944 126.323 389.944 126.323 389.944C129.143 393.285 131.949 396.586 134.733 399.843C134.733 399.843 134.733 399.843 134.733 399.843C134.314 400.202 134.264 400.833 134.623 401.253C137.921 405.107 141.187 408.899 144.408 412.621C144.77 413.039 145.401 413.084 145.819 412.723C148.701 416.052 151.547 419.325 154.347 422.538C153.93 422.901 153.887 423.532 154.25 423.949C157.361 427.518 160.414 431.012 163.396 434.425L164.124 435.258C164.487 435.674 165.119 435.716 165.535 435.353C168.463 438.705 171.32 441.975 174.093 445.16C173.676 445.522 173.632 446.154 173.995 446.57C175.644 448.466 177.263 450.33 178.848 452.161L178.868 452.184L178.889 452.206C180.8 454.16 182.664 456.052 184.485 457.884C184.874 458.276 185.507 458.278 185.899 457.889C185.899 457.889 185.899 457.888 185.899 457.888C189.12 461.123 192.2 464.166 195.145 467.023C195.145 467.023 195.145 467.024 195.145 467.024C194.761 467.421 194.772 468.054 195.169 468.438C199.057 472.198 202.711 475.634 206.15 478.765C206.558 479.136 207.191 479.107 207.562 478.698C207.563 478.698 207.563 478.698 207.563 478.697C211.128 481.926 214.456 484.819 217.568 487.396C217.567 487.397 217.567 487.397 217.566 487.398C217.216 487.825 217.278 488.455 217.705 488.805C222.26 492.545 226.358 495.608 230.065 498.057C230.525 498.361 231.146 498.234 231.45 497.773C231.451 497.772 231.452 497.771 231.453 497.769C235.887 500.632 239.725 502.572 243.093 503.713C243.091 503.718 243.089 503.724 243.088 503.729C242.928 504.258 243.228 504.816 243.756 504.975C250.099 506.888 254.945 505.991 258.953 502.953C259.393 502.62 259.479 501.992 259.146 501.552C259.14 501.544 259.134 501.536 259.127 501.529C262.013 499.06 264.429 495.389 266.782 490.915C266.783 490.916 266.785 490.917 266.786 490.918C267.278 491.17 267.881 490.976 268.133 490.484C269.703 487.42 271.26 484.006 272.909 480.389C273.464 479.173 274.029 477.934 274.608 476.678C274.839 476.177 274.62 475.584 274.12 475.352C275.882 471.553 277.799 467.575 279.992 463.538C280.475 463.803 281.081 463.627 281.348 463.144C283.684 458.913 286.328 454.635 289.421 450.445C289.748 450.002 289.656 449.378 289.215 449.049C291.783 445.643 294.654 442.297 297.903 439.084C298.287 439.477 298.917 439.486 299.313 439.104C302.732 435.8 306.566 432.646 310.9 429.726C311.356 429.418 311.478 428.8 311.173 428.342C314.685 426.034 318.514 423.875 322.704 421.909C322.935 422.408 323.527 422.627 324.027 422.398C328.344 420.425 333.045 418.654 338.176 417.13C338.704 416.973 339.006 416.419 338.851 415.891C342.853 414.738 347.109 413.734 351.638 412.899C351.736 413.441 352.254 413.802 352.797 413.706C357.493 412.873 362.484 412.221 367.794 411.771C368.344 411.725 368.752 411.243 368.707 410.693C372.887 410.362 377.26 410.156 381.836 410.084C381.843 410.635 382.296 411.076 382.847 411.07C387.608 411.016 392.589 411.108 397.803 411.358C398.354 411.384 398.822 410.959 398.85 410.408C403.065 410.625 407.43 410.943 411.951 411.37C411.898 411.919 412.3 412.407 412.849 412.46C417.753 412.938 422.841 413.542 428.12 414.281C428.666 414.357 429.171 413.976 429.248 413.43C433.391 414.02 437.649 414.693 442.028 415.451C441.933 415.994 442.296 416.512 442.84 416.607C447.67 417.454 452.645 418.405 457.771 419.465C458.312 419.577 458.84 419.23 458.953 418.69C463.144 419.564 467.436 420.512 471.829 421.534C471.704 422.071 472.037 422.609 472.575 422.735C477.341 423.852 482.228 425.058 487.239 426.354C487.773 426.492 488.319 426.172 488.457 425.637C492.624 426.722 496.875 427.869 501.213 429.081C501.064 429.613 501.374 430.164 501.905 430.314C504.407 431.016 506.937 431.74 509.497 432.486Z" stroke="#EDF2F4" stroke-width="2" stroke-linecap="round" stroke-dasharray="15 15"/>
<path d="M650.606 326.259L651.339 326.265L651.566 325.568C652.393 323.022 653.07 320.534 653.602 318.099C653.72 317.56 653.378 317.027 652.839 316.909C652.836 316.908 652.834 316.908 652.832 316.907C653.729 312.503 654.139 308.291 654.098 304.259C654.101 304.259 654.104 304.259 654.108 304.259C654.66 304.243 655.094 303.783 655.078 303.231C654.929 298.032 654.038 293.124 652.481 288.481C652.306 287.957 651.739 287.675 651.215 287.85C651.212 287.851 651.209 287.853 651.205 287.854C649.777 283.863 647.843 280.076 645.455 276.472C645.458 276.471 645.46 276.469 645.462 276.467C645.918 276.155 646.033 275.532 645.72 275.077C642.976 271.084 639.687 267.323 635.928 263.767C635.527 263.388 634.894 263.406 634.515 263.807C634.513 263.808 634.512 263.81 634.511 263.811C631.48 261.011 628.147 258.335 624.548 255.769C624.548 255.768 624.549 255.767 624.55 255.766C624.867 255.313 624.757 254.69 624.305 254.373C620.37 251.617 616.134 248.991 611.643 246.479C611.161 246.21 610.552 246.382 610.282 246.864C610.282 246.865 610.281 246.866 610.281 246.866C606.635 244.854 602.821 242.913 598.861 241.034C598.862 241.033 598.862 241.033 598.862 241.032C599.097 240.532 598.882 239.937 598.382 239.702C593.999 237.644 589.445 235.662 584.751 233.744C584.24 233.535 583.656 233.78 583.447 234.292C583.447 234.292 583.447 234.293 583.447 234.293C579.546 232.712 575.55 231.174 571.474 229.673C571.475 229.672 571.475 229.672 571.475 229.672C571.665 229.153 571.398 228.579 570.879 228.389C566.289 226.709 561.603 225.074 556.847 223.476C556.323 223.3 555.756 223.582 555.58 224.105C555.58 224.105 555.58 224.106 555.58 224.106C551.554 222.76 547.478 221.439 543.366 220.137C543.366 220.137 543.366 220.137 543.366 220.137C543.532 219.61 543.24 219.048 542.713 218.882C538.022 217.402 533.286 215.947 528.53 214.509C528.001 214.349 527.443 214.648 527.283 215.177C527.283 215.177 527.283 215.177 527.283 215.177C523.201 213.946 519.104 212.725 515.006 211.512C515.163 210.982 514.861 210.426 514.331 210.269C511.685 209.486 509.037 208.705 506.393 207.926C504.293 207.307 502.196 206.688 500.104 206.07C499.575 205.913 499.018 206.216 498.862 206.746C494.738 205.526 490.632 204.306 486.558 203.08C486.717 202.551 486.418 201.994 485.889 201.834C481.112 200.394 476.383 198.946 471.725 197.48C471.198 197.315 470.637 197.607 470.471 198.134C466.346 196.831 462.278 195.515 458.281 194.178C458.457 193.655 458.175 193.088 457.652 192.912C452.89 191.311 448.236 189.68 443.716 188.01C443.199 187.819 442.624 188.083 442.432 188.601C438.341 187.078 434.362 185.521 430.515 183.923C430.727 183.414 430.488 182.829 429.979 182.616C425.281 180.645 420.791 178.612 416.545 176.504C416.051 176.258 415.452 176.459 415.206 176.952C411.23 174.95 407.47 172.879 403.959 170.725C404.249 170.257 404.106 169.642 403.639 169.35C399.24 166.603 395.261 163.728 391.762 160.701C391.347 160.341 390.718 160.385 390.356 160.798C387.013 157.826 384.117 154.703 381.729 151.407C382.175 151.091 382.285 150.473 381.972 150.022C379.154 145.957 377.129 141.639 375.998 137.024C375.868 136.492 375.334 136.165 374.802 136.288C373.938 132.297 373.717 128.084 374.206 123.623C374.749 123.689 375.246 123.305 375.318 122.761C375.899 118.364 377.182 113.704 379.246 108.753C379.458 108.245 379.22 107.663 378.714 107.448C380.285 103.821 382.26 100.052 384.667 96.1313C385.134 96.4213 385.749 96.2789 386.041 95.8121C388.425 92.005 391.219 88.0488 394.448 83.9347C394.788 83.501 394.713 82.8739 394.281 82.5325C396.775 79.3921 399.518 76.164 402.519 72.8444C402.927 73.215 403.559 73.1854 403.93 72.7778C407.114 69.2858 410.585 65.6908 414.356 61.9882C414.749 61.6016 414.755 60.9693 414.369 60.5752C417.256 57.7583 420.313 54.8807 423.546 51.9407C423.917 52.3493 424.548 52.3805 424.958 52.0103C426.842 50.3052 428.785 48.579 430.789 46.8311L431.751 45.9925L430.707 45.2592C428.571 43.759 426.42 42.2968 424.256 40.8727C423.795 40.5691 423.175 40.697 422.871 41.1583C422.871 41.1589 422.87 41.1594 422.87 41.1599C419.079 38.6864 415.247 36.3299 411.379 34.0902C411.379 34.0897 411.379 34.0891 411.38 34.0885C411.655 33.6095 411.489 32.9983 411.01 32.7235C406.482 30.1264 401.906 27.6884 397.289 25.4096C396.793 25.1652 396.194 25.3685 395.949 25.8638C395.949 25.8644 395.949 25.865 395.948 25.8656C391.881 23.8789 387.782 22.016 383.658 20.277C383.658 20.2764 383.659 20.2757 383.659 20.2751C383.871 19.7653 383.63 19.1798 383.12 18.9674C378.3 16.9586 373.446 15.1181 368.565 13.4459C368.042 13.2669 367.474 13.5453 367.295 14.0678C367.295 14.0685 367.294 14.0691 367.294 14.0698C363.01 12.6222 358.706 11.3047 354.388 10.1175C354.389 10.1168 354.389 10.1161 354.389 10.1155C354.533 9.58231 354.218 9.03326 353.685 8.88913C348.651 7.52826 343.599 6.34349 338.538 5.33501C337.997 5.22707 337.47 5.57866 337.362 6.12029C337.362 6.12101 337.362 6.12173 337.362 6.12245C332.927 5.25892 328.486 4.53136 324.045 3.93988C324.045 3.93914 324.045 3.9384 324.045 3.93766C324.116 3.38988 323.729 2.88871 323.181 2.81825C318.009 2.15297 312.837 1.67142 307.676 1.37381C307.125 1.34202 306.652 1.76321 306.62 2.31459C306.62 2.31535 306.62 2.31611 306.62 2.31688C302.112 2.07766 297.612 1.97953 293.127 2.02262C293.127 2.02184 293.127 2.02106 293.127 2.02027C293.119 1.46805 292.665 1.02678 292.113 1.03467C286.907 1.10909 281.723 1.37307 276.569 1.82684C276.019 1.87528 275.612 2.36054 275.661 2.9107C275.661 2.9115 275.661 2.9123 275.661 2.91309C271.17 3.33029 266.703 3.89254 262.268 4.59995C262.268 4.59915 262.268 4.59834 262.267 4.59753C262.178 4.05257 261.663 3.68348 261.118 3.77314C255.987 4.61745 250.897 5.65562 245.861 6.88786C245.324 7.0191 244.996 7.56039 245.127 8.09685C245.127 8.09767 245.127 8.09848 245.128 8.09929C240.76 9.19109 236.433 10.4299 232.154 11.8159C232.154 11.8151 232.154 11.8143 232.153 11.8135C231.981 11.2889 231.415 11.0039 230.891 11.1767C225.961 12.8012 221.096 14.6206 216.305 16.6353C215.796 16.8494 215.557 17.4357 215.771 17.9448C215.771 17.9456 215.771 17.9464 215.772 17.9472C211.641 19.7097 207.566 21.6186 203.555 23.6742C203.554 23.6734 203.554 23.6726 203.553 23.6718C203.299 23.1817 202.695 22.9905 202.205 23.245C197.61 25.6299 193.1 28.2071 188.683 30.9767C188.215 31.2701 188.074 31.8872 188.367 32.3551C188.368 32.3559 188.368 32.3566 188.368 32.3574C184.583 34.759 180.868 37.3035 177.23 39.991C177.23 39.9903 177.229 39.9896 177.229 39.9889C176.898 39.5465 176.272 39.4557 175.829 39.7862C171.698 42.8715 167.668 46.1414 163.747 49.596C163.333 49.9611 163.293 50.593 163.658 51.0074C163.659 51.0081 163.659 51.0087 163.66 51.0094C160.324 53.9794 157.07 57.0848 153.903 60.3257C153.902 60.3252 153.902 60.3246 153.901 60.324C153.504 59.94 152.871 59.9505 152.487 60.3475C148.91 64.045 145.446 67.9156 142.103 71.9595C141.751 72.3852 141.811 73.0155 142.236 73.3674C142.237 73.3679 142.238 73.3684 142.238 73.369C139.412 76.8218 136.675 80.4004 134.03 84.1048C134.03 84.1043 134.029 84.1038 134.028 84.1034C133.577 83.7847 132.953 83.8919 132.635 84.343C129.679 88.526 126.842 92.8666 124.13 97.3651C123.845 97.8381 123.998 98.4527 124.471 98.7378C124.471 98.7382 124.472 98.7386 124.473 98.739C122.197 102.553 120.012 106.481 117.922 110.522C117.922 110.522 117.921 110.522 117.92 110.521C117.429 110.27 116.826 110.464 116.575 110.956C114.247 115.506 112.039 120.197 109.957 125.03C109.738 125.537 109.972 126.126 110.479 126.344C110.48 126.344 110.481 126.345 110.481 126.345C108.742 130.428 107.093 134.612 105.537 138.898C105.537 138.897 105.536 138.897 105.535 138.897C105.015 138.711 104.443 138.981 104.257 139.501C103.382 141.94 102.538 144.411 101.724 146.914C100.912 149.415 100.207 151.894 99.606 154.351C99.4748 154.888 99.8033 155.429 100.34 155.56C100.341 155.56 100.343 155.561 100.345 155.561C99.3275 159.912 98.6403 164.191 98.2612 168.404C98.2594 168.404 98.2575 168.404 98.2556 168.404C97.705 168.36 97.2236 168.771 97.1803 169.322C96.7748 174.476 96.8249 179.533 97.2914 184.498C97.343 185.048 97.8307 185.452 98.3805 185.4C98.3824 185.4 98.3843 185.399 98.3862 185.399C98.8446 189.743 99.6247 194.017 100.699 198.225C100.698 198.225 100.696 198.225 100.694 198.226C100.161 198.368 99.8435 198.916 99.9858 199.45C101.284 204.316 102.97 209.092 105 213.786C105.22 214.293 105.808 214.526 106.315 214.307C106.317 214.306 106.318 214.306 106.319 214.305C108.059 218.229 110.042 222.098 112.243 225.916C112.242 225.917 112.241 225.918 112.24 225.918C111.764 226.198 111.604 226.81 111.883 227.287C114.394 231.569 117.175 235.786 120.191 239.944C120.515 240.391 121.14 240.49 121.587 240.166C121.588 240.166 121.589 240.165 121.589 240.164C124.126 243.62 126.825 247.037 129.668 250.419C129.667 250.42 129.667 250.42 129.666 250.421C129.245 250.778 129.193 251.409 129.551 251.83C132.761 255.615 136.147 259.355 139.679 263.055C140.061 263.455 140.694 263.47 141.093 263.088C141.093 263.088 141.094 263.087 141.094 263.087C144.077 266.19 147.164 269.267 150.338 272.321C150.337 272.321 150.337 272.321 150.337 272.322C149.955 272.721 149.969 273.354 150.368 273.736C153.966 277.179 157.672 280.593 161.462 283.981C161.874 284.349 162.506 284.314 162.874 283.902C162.874 283.902 162.875 283.902 162.875 283.901C166.105 286.778 169.396 289.637 172.733 292.482C172.732 292.482 172.732 292.482 172.732 292.483C172.374 292.903 172.425 293.534 172.846 293.892C176.658 297.133 180.526 300.354 184.428 303.559C184.855 303.91 185.485 303.848 185.836 303.421C185.836 303.421 185.836 303.421 185.836 303.421C189.197 306.176 192.583 308.921 195.98 311.658C195.634 312.089 195.702 312.718 196.132 313.064C200.031 316.202 203.943 319.33 207.846 322.451L207.89 322.486C208.322 322.831 208.951 322.761 209.296 322.33C212.704 325.055 216.106 327.776 219.487 330.495C219.141 330.926 219.209 331.555 219.639 331.901C223.569 335.065 227.468 338.226 231.315 341.389C231.741 341.739 232.371 341.678 232.722 341.252C236.106 344.04 239.45 346.83 242.736 349.626C242.378 350.046 242.429 350.677 242.849 351.035C246.709 354.328 250.488 357.627 254.161 360.937C254.571 361.306 255.203 361.273 255.573 360.864C258.844 363.824 262.029 366.794 265.112 369.778C264.728 370.173 264.737 370.806 265.132 371.191C268.79 374.751 272.297 378.328 275.624 381.928C275.998 382.334 276.63 382.359 277.035 381.986C280.041 385.265 282.897 388.565 285.582 391.89C285.152 392.235 285.082 392.862 285.426 393.293C288.626 397.3 291.57 401.34 294.22 405.421C294.52 405.883 295.137 406.015 295.6 405.717C297.995 409.467 300.145 413.256 302.018 417.087C301.523 417.326 301.313 417.921 301.55 418.418C303.727 422.985 305.503 427.607 306.829 432.297C306.979 432.826 307.528 433.135 308.057 432.989C309.192 437.204 309.967 441.476 310.347 445.814C309.799 445.858 309.389 446.336 309.43 446.884C309.784 451.718 309.639 456.635 308.943 461.645C308.867 462.19 309.245 462.693 309.789 462.772C309.155 466.918 308.148 471.126 306.74 475.402C306.219 475.227 305.654 475.506 305.476 476.026C303.951 480.482 301.983 485.018 299.538 489.64C299.28 490.127 299.465 490.73 299.95 490.99C297.978 494.637 295.714 498.333 293.142 502.083C292.689 501.77 292.068 501.882 291.753 502.334C290.323 504.387 288.799 506.456 287.18 508.543L286.307 509.667L287.661 510.107C290.181 510.926 292.673 511.667 295.138 512.332C295.671 512.476 296.22 512.161 296.364 511.628C296.364 511.626 296.365 511.625 296.365 511.624C300.763 512.779 305.071 513.69 309.296 514.372C309.295 514.373 309.295 514.374 309.295 514.375C309.211 514.921 309.586 515.432 310.132 515.515C315.341 516.314 320.425 516.766 325.397 516.896C325.949 516.91 326.409 516.475 326.423 515.922C326.423 515.921 326.423 515.92 326.423 515.918C330.914 515.997 335.31 515.811 339.62 515.379C339.62 515.38 339.62 515.382 339.62 515.383C339.68 515.932 340.174 516.329 340.723 516.269C345.89 515.704 350.935 514.79 355.869 513.56C356.405 513.427 356.731 512.884 356.597 512.348C356.597 512.346 356.597 512.345 356.596 512.344C360.879 511.237 365.079 509.89 369.206 508.325C369.206 508.326 369.207 508.327 369.207 508.328C369.407 508.843 369.987 509.099 370.501 508.899C375.254 507.054 379.909 504.925 384.48 502.545C384.97 502.29 385.16 501.686 384.905 501.196C384.905 501.195 384.904 501.194 384.904 501.193C388.774 499.146 392.586 496.918 396.349 494.53C396.35 494.531 396.35 494.532 396.351 494.533C396.649 494.997 397.268 495.132 397.732 494.834C401.978 492.108 406.16 489.182 410.292 486.086C410.734 485.755 410.823 485.128 410.492 484.686C410.492 484.685 410.491 484.685 410.491 484.684C413.977 482.049 417.43 479.292 420.856 476.432C420.856 476.432 420.856 476.433 420.857 476.433C421.212 476.856 421.843 476.911 422.266 476.555C426.128 473.31 429.957 469.936 433.761 466.459C434.169 466.087 434.198 465.454 433.825 465.046C433.825 465.046 433.825 465.046 433.824 465.046C437.054 462.081 440.269 459.043 443.475 455.947C443.475 455.948 443.475 455.948 443.475 455.948C443.86 456.345 444.493 456.355 444.889 455.97C448.519 452.455 452.137 448.868 455.754 445.233C456.143 444.841 456.142 444.208 455.75 443.818C455.75 443.818 455.75 443.818 455.75 443.818C458.845 440.702 461.94 437.551 465.042 434.379C465.437 434.765 466.07 434.758 466.456 434.363C468.31 432.465 470.171 430.557 472.035 428.645C473.723 426.913 475.414 425.179 477.106 423.447C477.492 423.052 477.485 422.419 477.089 422.033C480.171 418.88 483.266 415.726 486.382 412.583C486.774 412.971 487.407 412.969 487.796 412.577C491.372 408.975 494.974 405.39 498.612 401.844C499.007 401.459 499.015 400.826 498.63 400.43C501.799 397.349 504.996 394.297 508.227 391.289C508.602 391.693 509.235 391.716 509.639 391.341C513.365 387.883 517.136 384.485 520.959 381.168C521.375 380.806 521.42 380.176 521.059 379.758C524.41 376.866 527.802 374.035 531.242 371.28C531.586 371.711 532.214 371.782 532.646 371.439C536.622 368.275 540.66 365.215 544.77 362.279C545.219 361.959 545.324 361.335 545.004 360.886C548.615 358.328 552.282 355.866 556.011 353.515C556.304 353.982 556.92 354.124 557.388 353.832C561.685 351.149 566.064 348.615 570.535 346.251C571.022 345.993 571.209 345.39 570.953 344.902C574.861 342.861 578.84 340.949 582.897 339.181C583.115 339.687 583.702 339.921 584.209 339.703C588.829 337.721 593.548 335.926 598.376 334.342C598.9 334.17 599.185 333.606 599.015 333.082C603.182 331.742 607.431 330.557 611.766 329.54C611.89 330.077 612.425 330.412 612.963 330.29C617.817 329.183 622.781 328.289 627.863 327.626C628.409 327.555 628.795 327.054 628.725 326.508C633.035 325.973 637.429 325.603 641.912 325.41C641.934 325.96 642.397 326.39 642.948 326.369C645.472 326.276 648.024 326.238 650.606 326.259Z" stroke="#EDF2F4" stroke-width="2" stroke-linecap="round" stroke-dasharray="15 15"/>
</svg>
