<svg width="21" height="21" viewBox="0 0 21 21" fill="none" xmlns="http://www.w3.org/2000/svg">
<path d="M16.0781 5.25V13.7812C16.0781 13.8683 16.0436 13.9517 15.982 14.0133C15.9205 14.0748 15.837 14.1094 15.75 14.1094C15.663 14.1094 15.5795 14.0748 15.518 14.0133C15.4565 13.9517 15.4219 13.8683 15.4219 13.7812V6.0457L5.4797 15.9797C5.44987 16.0104 5.41417 16.0349 5.37472 16.0516C5.33526 16.0683 5.29285 16.0769 5.25001 16.0769C5.20716 16.0769 5.16476 16.0683 5.1253 16.0516C5.08584 16.0349 5.05015 16.0104 5.02032 15.9797C4.98956 15.9499 4.9651 15.9142 4.9484 15.8747C4.9317 15.8353 4.9231 15.7928 4.9231 15.75C4.9231 15.7072 4.9317 15.6647 4.9484 15.6253C4.9651 15.5858 4.98956 15.5501 5.02032 15.5203L14.9543 5.57812H7.21876C7.13173 5.57812 7.04827 5.54356 6.98674 5.48202C6.9252 5.42048 6.89063 5.33702 6.89063 5.25C6.89063 5.16298 6.9252 5.07952 6.98674 5.01798C7.04827 4.95645 7.13173 4.92188 7.21876 4.92188H15.75C15.837 4.92188 15.9205 4.95645 15.982 5.01798C16.0436 5.07952 16.0781 5.16298 16.0781 5.25Z" fill="#EDF2F4"/>
</svg>
