<svg width="488" height="558" viewBox="0 0 488 558" fill="none" xmlns="http://www.w3.org/2000/svg">
    <mask id="mask0_130_122" maskUnits="userSpaceOnUse" x="17" y="25" width="454" height="509">
        <rect x="270.686" y="533.283" width="287.588" height="422" transform="rotate(-151.739 270.686 533.283)" fill="#D9D9D9" />
    </mask>
    <g mask="url(#mask0_130_122)">
        <path d="M361.248 343.051C354.58 340.232 348.099 338.157 341.787 336.745L342.006 335.769C334.983 334.197 328.164 333.436 321.527 333.375L321.518 334.375C314.55 334.312 307.787 335.028 301.2 336.39L300.998 335.411C294.249 336.807 287.689 338.875 281.289 341.47L281.665 342.397C275.406 344.936 269.294 347.986 263.3 351.416L262.804 350.548C256.915 353.917 251.146 357.647 245.469 361.611L246.041 362.431C240.485 366.311 235.011 370.421 229.596 374.642L228.981 373.853C223.592 378.054 218.261 382.364 212.969 386.665L213.6 387.441C212.767 388.117 211.936 388.793 211.105 389.469C206.61 393.124 202.136 396.763 197.666 400.314L197.044 399.531C191.624 403.837 186.218 408.01 180.795 411.924L181.381 412.735C175.717 416.822 170.033 420.633 164.295 424.022L163.786 423.161C157.788 426.704 151.743 429.777 145.615 432.219L145.985 433.148C139.542 435.716 132.997 437.597 126.309 438.604L126.161 437.615C119.596 438.604 112.897 438.738 106.02 437.836L105.89 438.827C99.4853 437.988 92.928 436.262 86.1867 433.507L86.565 432.582C83.5451 431.348 80.4854 429.904 77.3827 428.236C74.2715 426.563 71.2156 424.83 68.2158 423.037L67.7028 423.895C61.5871 420.241 55.703 416.343 50.0571 412.221L50.6467 411.414C44.9265 407.238 39.4521 402.832 34.2305 398.219L33.5684 398.968C28.2451 394.265 23.1832 389.346 18.3902 384.234L19.1197 383.55C14.2881 378.398 9.73108 373.049 5.45606 367.527L4.66534 368.139C0.326534 362.534 -3.7231 356.752 -7.47562 350.817L-6.63041 350.283C-10.3977 344.325 -13.8642 338.211 -17.0217 331.968L-17.9141 332.42C-21.1074 326.106 -23.9862 319.66 -26.5423 313.107L-25.6106 312.744C-28.168 306.187 -30.4007 299.524 -32.3005 292.78L-33.2631 293.051C-35.1781 286.252 -36.7564 279.371 -37.9895 272.433L-37.0049 272.258C-38.234 265.343 -39.1184 258.373 -39.6498 251.373L-40.6469 251.448C-41.1804 244.421 -41.3597 237.363 -41.1764 230.302L-40.1768 230.328C-39.9951 223.327 -39.4552 216.323 -38.5489 209.342L-39.5405 209.213C-38.6363 202.247 -37.369 195.303 -35.7304 188.407L-34.7575 188.638C-33.1451 181.852 -31.1715 175.113 -28.8286 168.443L-29.7721 168.112C-27.4541 161.514 -24.7764 154.984 -21.7316 148.546L-20.8277 148.974C-19.3347 145.818 -17.753 142.683 -16.0816 139.574C-14.4102 136.465 -12.6685 133.417 -10.8594 130.43L-11.7147 129.912C-8.02488 123.822 -4.05557 117.986 0.169474 112.413L0.966371 113.017C5.23672 107.384 9.7696 102.02 14.5403 96.9318L13.8108 96.2478C18.659 91.0769 23.7516 86.1896 29.0627 81.5929L29.7171 82.349C35.0406 77.7417 40.5849 73.4278 46.3239 69.4144L45.7508 68.5949C51.5394 64.547 57.5248 60.8034 63.6807 57.3718L64.1676 58.2453C70.2995 54.827 76.6015 51.7195 83.047 48.9303L82.6499 48.0126C89.1165 45.2142 95.7268 42.7347 102.454 40.5816L102.759 41.534C109.432 39.3981 116.222 37.5848 123.101 36.1013L122.89 35.1238C129.766 33.641 136.731 32.4864 143.758 31.6671L143.874 32.6603C150.823 31.8502 157.834 31.3694 164.882 31.2248L164.862 30.2251C171.882 30.0811 178.939 30.2694 186.007 30.7968L185.932 31.794C192.896 32.3136 199.872 33.1639 206.835 34.3515L207.003 33.3658C213.91 34.544 220.805 36.0526 227.665 37.8982L227.405 38.8639C234.134 40.6742 240.828 42.8102 247.466 45.278L247.815 44.3407C254.367 46.7764 260.864 49.5339 267.286 52.619L266.853 53.5204C270.003 55.0337 273.135 56.6262 276.246 58.2987C279.275 59.927 282.129 61.6177 284.819 63.3678L285.364 62.5296C291.323 66.4073 296.49 70.5798 300.964 75.0181L300.26 75.7281C305.144 80.5718 309.192 85.7334 312.543 91.1755L313.395 90.6511C316.928 96.3882 319.696 102.434 321.853 108.745L320.907 109.069C323.016 115.236 324.539 121.668 325.622 128.326L326.609 128.165C327.658 134.618 328.295 141.269 328.652 148.083L327.653 148.136C327.994 154.646 328.079 161.311 328.024 168.1L329.024 168.108C328.97 174.682 328.786 181.364 328.577 188.123L327.577 188.092C327.532 189.539 327.487 190.99 327.44 192.445C327.276 197.628 327.111 202.858 326.991 208.115L327.991 208.138C327.839 214.775 327.761 221.458 327.851 228.159L326.851 228.172C326.941 234.846 327.197 241.544 327.713 248.236L328.71 248.16C329.223 254.801 329.992 261.433 331.111 268.031L330.125 268.198C331.241 274.777 332.703 281.326 334.603 287.818L335.563 287.537C337.413 293.86 339.68 300.125 342.449 306.309L341.536 306.718C344.22 312.711 347.371 318.629 351.067 324.449L351.911 323.913C355.376 329.37 359.322 334.739 363.814 340.004L363.053 340.653C364.042 341.812 365.058 342.966 366.1 344.115C364.603 343.417 363.116 342.756 361.638 342.13L361.248 343.051Z" stroke="#14151F" stroke-width="2" stroke-dasharray="20 20" />
    </g>
</svg>