<svg width="1080" height="450" viewBox="0 0 1080 450" fill="none" xmlns="http://www.w3.org/2000/svg">
<g clip-path="url(#clip0_236_233)">
<rect width="1080" height="450" fill="white"/>
<rect width="1080" height="450" fill="#D90429"/>
<rect x="160" y="176.623" width="104.566" height="97.3771" rx="17" fill="#EDF2F4"/>
<rect x="183.178" y="201.467" width="49.5402" height="46.0656" rx="14.5" fill="#D90429" stroke="#EDF2F4"/>
<rect x="207.632" y="214.656" width="37.6935" height="35.3771" rx="17.6885" fill="#D90429" stroke="#EDF2F4" stroke-width="4"/>
<path d="M296.62 207.85H291.72V244H312.52V239.45H296.62V207.85ZM319.343 213.75C321.043 213.75 322.443 212.35 322.443 210.65C322.443 208.9 321.043 207.55 319.343 207.55C317.643 207.55 316.243 208.9 316.243 210.65C316.243 212.35 317.643 213.75 319.343 213.75ZM317.043 244H321.743V219.55H317.043V244ZM343.953 219.55V232.45C343.953 237.7 341.603 240.45 337.303 240.45C333.703 240.45 331.453 238.45 331.453 233.2V219.55H326.753V234.75C326.753 240.75 329.953 244.6 335.653 244.6C339.253 244.6 342.503 242.85 343.903 240.3L344.403 244H348.603V219.55H343.953ZM353.333 231.8C353.333 239.5 358.083 244.6 365.283 244.6C371.183 244.6 375.733 241.05 376.683 235.75H371.983C371.133 238.65 368.633 240.4 365.283 240.4C360.833 240.4 357.983 237 357.983 231.75C357.983 226.45 361.033 223.05 365.483 223.05C368.633 223.05 371.133 224.7 371.933 227.8H376.633C375.783 222.35 371.483 218.85 365.333 218.85C358.183 218.85 353.333 224.15 353.333 231.8ZM380.042 231.75C380.042 239.3 385.442 244.6 392.792 244.6C400.092 244.6 405.492 239.3 405.492 231.75C405.492 224.2 400.092 218.9 392.792 218.9C385.442 218.9 380.042 224.2 380.042 231.75ZM384.792 231.75C384.792 226.65 388.042 223.1 392.792 223.1C397.492 223.1 400.792 226.65 400.792 231.75C400.792 236.85 397.492 240.4 392.792 240.4C388.042 240.4 384.792 236.85 384.792 231.75Z" fill="#EDF2F4"/>
<path d="M563.7 191L566.9 182H582.1L585.35 191H590.5L577.25 154.85H571.8L558.6 191H563.7ZM573.9 162.65C574.15 161.9 574.4 161.05 574.5 160.55C574.6 161.1 574.85 161.95 575.1 162.65L580.65 177.75H568.4L573.9 162.65ZM600.205 154.85H595.305V191H600.205V154.85ZM636.357 178.1C643.407 178.1 648.007 173.2 648.007 166.45C648.007 159.5 643.457 154.85 636.357 154.85H622.307V191H627.207V178.1H636.357ZM635.507 159.25C640.107 159.25 642.857 161.85 642.857 166.4C642.857 170.85 640.157 173.7 635.307 173.7H627.207V159.25H635.507ZM650.034 178.75C650.034 186.3 655.434 191.6 662.784 191.6C670.084 191.6 675.484 186.3 675.484 178.75C675.484 171.2 670.084 165.9 662.784 165.9C655.434 165.9 650.034 171.2 650.034 178.75ZM654.784 178.75C654.784 173.65 658.034 170.1 662.784 170.1C667.484 170.1 670.784 173.65 670.784 178.75C670.784 183.85 667.484 187.4 662.784 187.4C658.034 187.4 654.784 183.85 654.784 178.75ZM684.814 191H689.464L693.714 177.95C694.614 175 695.064 173.4 695.314 172.2C695.564 173.55 696.064 175.45 696.864 177.9L701.114 191H705.564L713.914 166.55H709.014L704.914 179.25C704.214 181.4 703.764 183.1 703.364 185.05C702.964 183.3 702.164 180.45 701.764 179.25L697.714 166.55H692.914L688.814 179.25C688.264 180.85 687.614 182.9 687.214 185.05C686.764 182.9 686.264 181.05 685.714 179.25L681.664 166.55H676.814L684.814 191ZM727.37 191.6C733.42 191.6 737.52 188.65 738.72 183.4H734.32C733.52 186.2 731.12 187.7 727.47 187.7C722.82 187.7 720.12 184.85 719.77 179.7L738.67 179.65V177.9C738.67 170.65 734.12 165.85 727.17 165.85C720.07 165.85 715.22 171.15 715.22 178.8C715.22 186.4 720.17 191.6 727.37 191.6ZM727.17 169.8C731.32 169.8 733.97 172.5 733.97 176.55H719.87C720.47 172.25 723.07 169.8 727.17 169.8ZM757.92 166.35C756.97 166.15 756.27 166.05 755.42 166.05C752.07 166.05 749.62 167.75 748.62 170.3L748.32 166.6H743.92V191H748.62V178.05C748.62 173.35 751.37 170.65 755.82 170.65H757.92V166.35ZM771.999 191.6C778.049 191.6 782.149 188.65 783.349 183.4H778.949C778.149 186.2 775.749 187.7 772.099 187.7C767.449 187.7 764.749 184.85 764.399 179.7L783.299 179.65V177.9C783.299 170.65 778.749 165.85 771.799 165.85C764.699 165.85 759.849 171.15 759.849 178.8C759.849 186.4 764.799 191.6 771.999 191.6ZM771.799 169.8C775.949 169.8 778.599 172.5 778.599 176.55H764.499C765.099 172.25 767.699 169.8 771.799 169.8ZM798.348 191.6C802.248 191.6 805.548 189.9 807.148 186.55L807.548 191H811.748V154.2H807.098V170.5C805.448 167.5 802.298 165.85 798.548 165.85C791.298 165.85 786.948 171.35 786.948 178.85C786.948 186.3 791.248 191.6 798.348 191.6ZM799.298 187.35C794.498 187.35 791.698 183.75 791.698 178.7C791.698 173.7 794.498 170.1 799.298 170.1C804.098 170.1 807.048 173.7 807.048 178.7C807.048 183.8 804.098 187.35 799.298 187.35Z" fill="#2B2D42"/>
<path d="M584.25 244V239.45H567.1V228H582.55V223.65H567.1V212.35H584.25V207.85H562.2V244H584.25ZM590.3 232.85H605.55V228.65H590.3V232.85ZM627.884 244.55C636.034 244.55 642.484 239.75 644.034 232.55H638.834C637.484 237 633.284 239.85 627.984 239.85C620.684 239.85 615.884 234.35 615.884 225.9C615.884 217.45 620.684 211.95 627.984 211.95C633.234 211.95 637.284 214.8 638.634 219.5H643.884C642.534 212.1 636.284 207.25 628.134 207.25C617.784 207.25 610.734 214.8 610.734 225.95C610.734 237.15 617.584 244.55 627.884 244.55ZM647.642 231.75C647.642 239.3 653.042 244.6 660.392 244.6C667.692 244.6 673.092 239.3 673.092 231.75C673.092 224.2 667.692 218.9 660.392 218.9C653.042 218.9 647.642 224.2 647.642 231.75ZM652.392 231.75C652.392 226.65 655.642 223.1 660.392 223.1C665.092 223.1 668.392 226.65 668.392 231.75C668.392 236.85 665.092 240.4 660.392 240.4C655.642 240.4 652.392 236.85 652.392 231.75ZM682.995 244V229.5C682.995 225.6 685.345 223.15 688.895 223.15C692.195 223.15 694.295 225.25 694.295 229.1V244H698.945V229.5C698.945 225.6 701.295 223.1 704.845 223.1C708.145 223.1 710.295 225.3 710.295 229.15V244H714.895V228C714.895 222.35 711.495 218.85 705.895 218.85C702.095 218.85 699.145 220.75 697.995 223.8C696.745 220.75 694.045 218.85 690.245 218.85C686.795 218.85 684.195 220.45 682.945 222.75L682.495 219.55H678.295V244H682.995ZM726.11 244V229.5C726.11 225.6 728.46 223.15 732.01 223.15C735.31 223.15 737.41 225.25 737.41 229.1V244H742.06V229.5C742.06 225.6 744.41 223.1 747.96 223.1C751.26 223.1 753.41 225.3 753.41 229.15V244H758.01V228C758.01 222.35 754.61 218.85 749.01 218.85C745.21 218.85 742.26 220.75 741.11 223.8C739.86 220.75 737.16 218.85 733.36 218.85C729.91 218.85 727.31 220.45 726.06 222.75L725.61 219.55H721.41V244H726.11ZM775.075 244.6C781.125 244.6 785.225 241.65 786.425 236.4H782.025C781.225 239.2 778.825 240.7 775.175 240.7C770.525 240.7 767.825 237.85 767.475 232.7L786.375 232.65V230.9C786.375 223.65 781.825 218.85 774.875 218.85C767.775 218.85 762.925 224.15 762.925 231.8C762.925 239.4 767.875 244.6 775.075 244.6ZM774.875 222.8C779.025 222.8 781.675 225.5 781.675 229.55H767.575C768.175 225.25 770.775 222.8 774.875 222.8ZM805.625 219.35C804.675 219.15 803.975 219.05 803.125 219.05C799.775 219.05 797.325 220.75 796.325 223.3L796.025 219.6H791.625V244H796.325V231.05C796.325 226.35 799.075 223.65 803.525 223.65H805.625V219.35ZM807.554 231.8C807.554 239.5 812.304 244.6 819.504 244.6C825.404 244.6 829.954 241.05 830.904 235.75H826.204C825.354 238.65 822.854 240.4 819.504 240.4C815.054 240.4 812.204 237 812.204 231.75C812.204 226.45 815.254 223.05 819.704 223.05C822.854 223.05 825.354 224.7 826.154 227.8H830.854C830.004 222.35 825.704 218.85 819.554 218.85C812.404 218.85 807.554 224.15 807.554 231.8ZM846.413 244.6C852.463 244.6 856.563 241.65 857.763 236.4H853.363C852.563 239.2 850.163 240.7 846.513 240.7C841.863 240.7 839.163 237.85 838.813 232.7L857.713 232.65V230.9C857.713 223.65 853.163 218.85 846.213 218.85C839.113 218.85 834.263 224.15 834.263 231.8C834.263 239.4 839.213 244.6 846.413 244.6ZM846.213 222.8C850.363 222.8 853.013 225.5 853.013 229.55H838.913C839.513 225.25 842.113 222.8 846.213 222.8ZM567.1 297V280.95H585V297H589.9V260.85H585V276.4H567.1V260.85H562.2V297H567.1ZM608.034 297.6C614.084 297.6 618.184 294.65 619.384 289.4H614.984C614.184 292.2 611.784 293.7 608.134 293.7C603.484 293.7 600.784 290.85 600.434 285.7L619.334 285.65V283.9C619.334 276.65 614.784 271.85 607.834 271.85C600.734 271.85 595.884 277.15 595.884 284.8C595.884 292.4 600.834 297.6 608.034 297.6ZM607.834 275.8C611.984 275.8 614.634 278.5 614.634 282.55H600.534C601.134 278.25 603.734 275.8 607.834 275.8ZM629.384 297V260.2H624.684V297H629.384ZM636.302 307.95H641.002V293C642.602 296 645.852 297.65 649.752 297.65C657.002 297.65 661.102 292.05 661.102 284.6C661.102 277.1 656.752 271.85 649.752 271.85C645.852 271.85 642.552 273.6 640.902 276.95L640.552 272.55H636.302V307.95ZM641.052 284.8C641.052 279.7 643.952 276.15 648.752 276.15C653.552 276.15 656.402 279.75 656.402 284.8C656.402 289.8 653.552 293.4 648.752 293.4C643.952 293.4 641.052 289.8 641.052 284.8ZM668.583 266.75C670.283 266.75 671.683 265.35 671.683 263.65C671.683 261.9 670.283 260.55 668.583 260.55C666.883 260.55 665.483 261.9 665.483 263.65C665.483 265.35 666.883 266.75 668.583 266.75ZM666.283 297H670.983V272.55H666.283V297ZM682.506 297V284.05C682.506 279.3 685.056 276.15 689.456 276.15C693.056 276.15 695.356 278.15 695.356 283.1V297H700.056V282.05C700.056 275.8 697.106 271.85 690.656 271.85C687.206 271.85 684.106 273.5 682.556 276.3L682.056 272.55H677.806V297H682.506ZM705.016 284.15C705.016 291 709.416 296.35 716.366 296.35C720.216 296.35 723.416 294.65 725.016 291.8V296.7C725.016 301.35 722.016 304.35 717.416 304.35C713.316 304.35 710.616 302.25 710.016 298.65H705.316C706.216 304.85 710.766 308.6 717.416 308.6C724.916 308.6 729.666 303.7 729.666 296V272.55H725.466L725.116 276.7C723.566 273.65 720.516 271.85 716.566 271.85C709.466 271.85 705.016 277.25 705.016 284.15ZM709.716 284.05C709.716 279.55 712.516 275.95 717.216 275.95C722.016 275.95 724.816 279.35 724.816 284.05C724.816 288.85 721.916 292.25 717.166 292.25C712.566 292.25 709.716 288.65 709.716 284.05ZM747.421 265.35H758.321V297H763.221V265.35H774.071V260.85H747.421V265.35ZM772.642 284.75C772.642 292.3 778.042 297.6 785.392 297.6C792.692 297.6 798.092 292.3 798.092 284.75C798.092 277.2 792.692 271.9 785.392 271.9C778.042 271.9 772.642 277.2 772.642 284.75ZM777.392 284.75C777.392 279.65 780.642 276.1 785.392 276.1C790.092 276.1 793.392 279.65 793.392 284.75C793.392 289.85 790.092 293.4 785.392 293.4C780.642 293.4 777.392 289.85 777.392 284.75ZM801.695 284.75C801.695 292.3 807.095 297.6 814.445 297.6C821.745 297.6 827.145 292.3 827.145 284.75C827.145 277.2 821.745 271.9 814.445 271.9C807.095 271.9 801.695 277.2 801.695 284.75ZM806.445 284.75C806.445 279.65 809.695 276.1 814.445 276.1C819.145 276.1 822.445 279.65 822.445 284.75C822.445 289.85 819.145 293.4 814.445 293.4C809.695 293.4 806.445 289.85 806.445 284.75ZM837.147 297V260.2H832.447V297H837.147Z" fill="#EDF2F4"/>
</g>
<defs>
<clipPath id="clip0_236_233">
<rect width="1080" height="450" fill="white"/>
</clipPath>
</defs>
</svg>
