<svg width="311" height="180" viewBox="0 0 311 180" fill="none" xmlns="http://www.w3.org/2000/svg">
<g clip-path="url(#clip0_272_406)">
<rect y="30.2131" width="135" height="135" rx="36" fill="#D90429"/>
<rect x="29.7783" y="64.463" width="64.25" height="64.25" rx="21.5" fill="#EDF2F4" stroke="#D90429"/>
<rect x="61.5781" y="83.213" width="48.5" height="48.5" rx="24.25" fill="#EDF2F4" stroke="#D90429" stroke-width="5"/>
<path d="M170.61 75.62H164.73V119H189.69V113.54H170.61V75.62ZM197.878 82.7C199.918 82.7 201.598 81.02 201.598 78.98C201.598 76.88 199.918 75.26 197.878 75.26C195.838 75.26 194.158 76.88 194.158 78.98C194.158 81.02 195.838 82.7 197.878 82.7ZM195.118 119H200.758V89.66H195.118V119ZM227.41 89.66V105.14C227.41 111.44 224.59 114.74 219.43 114.74C215.11 114.74 212.41 112.34 212.41 106.04V89.66H206.77V107.9C206.77 115.1 210.61 119.72 217.45 119.72C221.77 119.72 225.67 117.62 227.35 114.56L227.95 119H232.99V89.66H227.41ZM238.667 104.36C238.667 113.6 244.367 119.72 253.007 119.72C260.087 119.72 265.547 115.46 266.687 109.1H261.047C260.027 112.58 257.027 114.68 253.007 114.68C247.667 114.68 244.247 110.6 244.247 104.3C244.247 97.94 247.907 93.86 253.247 93.86C257.027 93.86 260.027 95.84 260.987 99.56H266.627C265.607 93.02 260.447 88.82 253.067 88.82C244.487 88.82 238.667 95.18 238.667 104.36ZM270.717 104.3C270.717 113.36 277.197 119.72 286.017 119.72C294.777 119.72 301.257 113.36 301.257 104.3C301.257 95.24 294.777 88.88 286.017 88.88C277.197 88.88 270.717 95.24 270.717 104.3ZM276.417 104.3C276.417 98.18 280.317 93.92 286.017 93.92C291.657 93.92 295.617 98.18 295.617 104.3C295.617 110.42 291.657 114.68 286.017 114.68C280.317 114.68 276.417 110.42 276.417 104.3Z" fill="#D90429"/>
</g>
<defs>
<clipPath id="clip0_272_406">
<rect width="311" height="180" fill="white"/>
</clipPath>
</defs>
</svg>
